<?xml version="1.0" encoding="us-ascii" standalone="no"?><svg xmlns="http://www.w3.org/2000/svg" xmlns:xlink="http://www.w3.org/1999/xlink" contentStyleType="text/css" height="365px" preserveAspectRatio="none" style="width:668px;height:365px;background:#FFFFFF;" version="1.1" viewBox="0 0 668 365" width="668px" zoomAndPan="magnify"><defs/><g><text fill="#000000" font-family="sans-serif" font-size="14" font-weight="bold" lengthAdjust="spacing" textLength="276" x="192" y="40.6357">Establish a connection to a Service</text><rect fill="#DDDDDD" height="296.4922" style="stroke:none;stroke-width:0.5;" width="224" x="51" y="55.9375"/><text fill="#000000" font-family="sans-serif" font-size="13" font-weight="bold" lengthAdjust="spacing" textLength="132" x="97" y="68.0044">Service Consumer</text><rect fill="#DDDDDD" height="296.4922" style="stroke:none;stroke-width:0.5;" width="233" x="377" y="55.9375"/><text fill="#000000" font-family="sans-serif" font-size="13" font-weight="bold" lengthAdjust="spacing" textLength="120" x="433.5" y="68.0044">Service Provider</text><line style="stroke:#181818;stroke-width:0.5;stroke-dasharray:5.0,5.0;" x1="81" x2="81" y1="106.3672" y2="358.4297"/><line style="stroke:#181818;stroke-width:0.5;stroke-dasharray:5.0,5.0;" x1="238" x2="238" y1="106.3672" y2="358.4297"/><line style="stroke:#181818;stroke-width:0.5;stroke-dasharray:5.0,5.0;" x1="407" x2="407" y1="106.3672" y2="358.4297"/><line style="stroke:#181818;stroke-width:0.5;stroke-dasharray:5.0,5.0;" x1="574" x2="574" y1="106.3672" y2="358.4297"/><rect fill="#E2E2F0" height="30.2969" rx="2.5" ry="2.5" style="stroke:#181818;stroke-width:0.5;" width="53" x="55" y="75.0703"/><text fill="#000000" font-family="sans-serif" font-size="14" lengthAdjust="spacing" textLength="39" x="62" y="95.0654">Client</text><rect fill="#E2E2F0" height="30.2969" rx="2.5" ry="2.5" style="stroke:#181818;stroke-width:0.5;" width="65" x="206" y="75.0703"/><text fill="#000000" font-family="sans-serif" font-size="14" lengthAdjust="spacing" textLength="51" x="213" y="95.0654">Outway</text><rect fill="#E2E2F0" height="30.2969" rx="2.5" ry="2.5" style="stroke:#181818;stroke-width:0.5;" width="52" x="381" y="75.0703"/><text fill="#000000" font-family="sans-serif" font-size="14" lengthAdjust="spacing" textLength="38" x="388" y="95.0654">Inway</text><rect fill="#E2E2F0" height="30.2969" rx="2.5" ry="2.5" style="stroke:#181818;stroke-width:0.5;" width="64" x="542" y="75.0703"/><text fill="#000000" font-family="sans-serif" font-size="14" lengthAdjust="spacing" textLength="50" x="549" y="95.0654">Service</text><polygon fill="#181818" points="226.5,133.5,236.5,137.5,226.5,141.5,230.5,137.5" style="stroke:#181818;stroke-width:1.0;"/><line style="stroke:#181818;stroke-width:1.0;" x1="81.5" x2="232.5" y1="137.5" y2="137.5"/><text fill="#000000" font-family="sans-serif" font-size="13" font-weight="bold" lengthAdjust="spacing" textLength="9" x="88.5" y="132.4341">1</text><text fill="#000000" font-family="sans-serif" font-size="13" lengthAdjust="spacing" textLength="120" x="101.5" y="132.4341">Request to Service</text><polygon fill="#181818" points="395,177.7656,405,181.7656,395,185.7656,399,181.7656" style="stroke:#181818;stroke-width:1.0;"/><line style="stroke:#181818;stroke-width:1.0;" x1="238.5" x2="401" y1="181.7656" y2="181.7656"/><text fill="#000000" font-family="sans-serif" font-size="13" font-weight="bold" lengthAdjust="spacing" textLength="9" x="245.5" y="169.1333">2</text><text fill="#000000" font-family="sans-serif" font-size="13" lengthAdjust="spacing" textLength="52" x="258.5" y="161.5669">Request</text><text fill="#000000" font-family="sans-serif" font-size="13" lengthAdjust="spacing" textLength="113" x="258.5" y="176.6997">with access token</text><line style="stroke:#181818;stroke-width:1.0;" x1="407" x2="449" y1="210.8984" y2="210.8984"/><line style="stroke:#181818;stroke-width:1.0;" x1="449" x2="449" y1="210.8984" y2="223.8984"/><line style="stroke:#181818;stroke-width:1.0;" x1="408" x2="449" y1="223.8984" y2="223.8984"/><polygon fill="#181818" points="418,219.8984,408,223.8984,418,227.8984,414,223.8984" style="stroke:#181818;stroke-width:1.0;"/><text fill="#000000" font-family="sans-serif" font-size="13" font-weight="bold" lengthAdjust="spacing" textLength="9" x="414" y="205.8325">3</text><text fill="#000000" font-family="sans-serif" font-size="13" lengthAdjust="spacing" textLength="140" x="427" y="205.8325">Validate access token</text><polygon fill="#181818" points="562,249.0313,572,253.0313,562,257.0313,566,253.0313" style="stroke:#181818;stroke-width:1.0;"/><line style="stroke:#181818;stroke-width:1.0;" x1="407" x2="568" y1="253.0313" y2="253.0313"/><text fill="#000000" font-family="sans-serif" font-size="13" font-weight="bold" lengthAdjust="spacing" textLength="9" x="414" y="247.9653">4</text><text fill="#000000" font-family="sans-serif" font-size="13" lengthAdjust="spacing" textLength="52" x="427" y="247.9653">Request</text><polygon fill="#181818" points="418,278.1641,408,282.1641,418,286.1641,414,282.1641" style="stroke:#181818;stroke-width:1.0;"/><line style="stroke:#181818;stroke-width:1.0;stroke-dasharray:2.0,2.0;" x1="412" x2="573" y1="282.1641" y2="282.1641"/><text fill="#000000" font-family="sans-serif" font-size="13" font-weight="bold" lengthAdjust="spacing" textLength="9" x="424" y="277.0981">5</text><text fill="#000000" font-family="sans-serif" font-size="13" lengthAdjust="spacing" textLength="62" x="437" y="277.0981">Response</text><polygon fill="#181818" points="249.5,307.2969,239.5,311.2969,249.5,315.2969,245.5,311.2969" style="stroke:#181818;stroke-width:1.0;"/><line style="stroke:#181818;stroke-width:1.0;stroke-dasharray:2.0,2.0;" x1="243.5" x2="406" y1="311.2969" y2="311.2969"/><text fill="#000000" font-family="sans-serif" font-size="13" font-weight="bold" lengthAdjust="spacing" textLength="9" x="255.5" y="306.231">6</text><text fill="#000000" font-family="sans-serif" font-size="13" lengthAdjust="spacing" textLength="62" x="268.5" y="306.231">Response</text><polygon fill="#181818" points="92.5,336.4297,82.5,340.4297,92.5,344.4297,88.5,340.4297" style="stroke:#181818;stroke-width:1.0;"/><line style="stroke:#181818;stroke-width:1.0;stroke-dasharray:2.0,2.0;" x1="86.5" x2="237.5" y1="340.4297" y2="340.4297"/><text fill="#000000" font-family="sans-serif" font-size="13" font-weight="bold" lengthAdjust="spacing" textLength="9" x="98.5" y="335.3638">7</text><text fill="#000000" font-family="sans-serif" font-size="13" lengthAdjust="spacing" textLength="62" x="111.5" y="335.3638">Response</text><text fill="#888888" font-family="sans-serif" font-size="10" lengthAdjust="spacing" textLength="24" x="636" y="14.2822">Core</text><!--SRC=[ZP6nJiD038RtUmehp4WiB1qOMZ4mKHM9YSMz66erjSkTqvQtnmr9gDeh8aFaY_nz-S_6rbJQpP9IM17Mb2OmqqJ1s1gQm6CsN3QSLu0GLOIYiGgO-lc5qeuZXP3NB5jCk85Cdor9fAaUffhSDjD64znOGidUGc8dtKizpB6kMJxW_Ywik2PuLpN_78A_eEh_u8aajnjALG1_73QEl4Kng6ODkxG2p12xicS6v99uRcsFNnsXNNbEaDHmcM6UTES9IncUP12o_Fe6uBA_R-Y8_5EVCsE6ugNWzg6SVGABumQo7JSqxAVOULIKqew6Dzcp-TfZf9nTjoO99U2ww1KRhj7eVuxo8COu8P6rIVoOjtu5kkBvQp0zU6KSJXPdVK9-0m00]--></g></svg>