<?xml version="1.0" encoding="us-ascii" standalone="no"?><svg xmlns="http://www.w3.org/2000/svg" xmlns:xlink="http://www.w3.org/1999/xlink" contentStyleType="text/css" height="395px" preserveAspectRatio="none" style="width:465px;height:395px;background:#FFFFFF;" version="1.1" viewBox="0 0 465 395" width="465px" zoomAndPan="magnify"><defs/><g><text fill="#888888" font-family="sans-serif" font-size="10" lengthAdjust="spacing" textLength="24" x="433" y="9.2822">Core</text><text fill="#000000" font-family="sans-serif" font-size="14" font-weight="bold" lengthAdjust="spacing" textLength="437" x="10" y="35.6357">mTLS connections with Trust Anchor X.509 certificates</text><!--cluster Group--><g id="cluster_Group"><rect fill="none" height="333" rx="2.5" ry="2.5" style="stroke:#181818;stroke-width:1.0;" width="350" x="61" y="56.9375"/><path d="M120,56.9375 L120,66.2344 L110,76.2344 L61,76.2344 " fill="none" style="stroke:#181818;stroke-width:1.0;"/><text fill="#000000" font-family="sans-serif" font-size="14" font-weight="bold" lengthAdjust="spacing" textLength="49" x="64" y="70.9326">Group</text></g><!--cluster Consuming Peer--><g id="cluster_Consuming Peer"><rect fill="none" height="203" rx="2.5" ry="2.5" style="stroke:#181818;stroke-width:1.0;" width="146" x="241" y="162.9375"/><path d="M381,162.9375 L381,172.2344 L371,182.2344 L241,182.2344 " fill="none" style="stroke:#181818;stroke-width:1.0;"/><text fill="#000000" font-family="sans-serif" font-size="14" font-weight="bold" lengthAdjust="spacing" textLength="130" x="244" y="176.9326">Consuming Peer</text></g><!--cluster Providing Peer--><g id="cluster_Providing Peer"><rect fill="none" height="203" rx="2.5" ry="2.5" style="stroke:#181818;stroke-width:1.0;" width="132" x="85" y="162.9375"/><path d="M211,162.9375 L211,172.2344 L201,182.2344 L85,182.2344 " fill="none" style="stroke:#181818;stroke-width:1.0;"/><text fill="#000000" font-family="sans-serif" font-size="14" font-weight="bold" lengthAdjust="spacing" textLength="116" x="88" y="176.9326">Providing Peer</text></g><!--entity directory--><g id="elem_directory"><rect fill="#F1F1F1" height="46.2969" rx="2.5" ry="2.5" style="stroke:#181818;stroke-width:0.5;" width="102" x="178" y="91.9375"/><rect fill="#F1F1F1" height="10" style="stroke:#181818;stroke-width:0.5;" width="15" x="260" y="96.9375"/><rect fill="#F1F1F1" height="2" style="stroke:#181818;stroke-width:0.5;" width="4" x="258" y="98.9375"/><rect fill="#F1F1F1" height="2" style="stroke:#181818;stroke-width:0.5;" width="4" x="258" y="102.9375"/><text fill="#000000" font-family="sans-serif" font-size="14" lengthAdjust="spacing" textLength="62" x="193" y="124.9326">Directory</text></g><!--entity outway--><g id="elem_outway"><rect fill="#F1F1F1" height="46.2969" rx="2.5" ry="2.5" style="stroke:#181818;stroke-width:0.5;" width="91" x="257.5" y="303.9375"/><rect fill="#F1F1F1" height="10" style="stroke:#181818;stroke-width:0.5;" width="15" x="328.5" y="308.9375"/><rect fill="#F1F1F1" height="2" style="stroke:#181818;stroke-width:0.5;" width="4" x="326.5" y="310.9375"/><rect fill="#F1F1F1" height="2" style="stroke:#181818;stroke-width:0.5;" width="4" x="326.5" y="314.9375"/><text fill="#000000" font-family="sans-serif" font-size="14" lengthAdjust="spacing" textLength="51" x="272.5" y="336.9326">Outway</text></g><!--entity managerConsumingPeer--><g id="elem_managerConsumingPeer"><rect fill="#F1F1F1" height="46.2969" rx="2.5" ry="2.5" style="stroke:#181818;stroke-width:0.5;" width="100" x="257" y="197.9375"/><rect fill="#F1F1F1" height="10" style="stroke:#181818;stroke-width:0.5;" width="15" x="337" y="202.9375"/><rect fill="#F1F1F1" height="2" style="stroke:#181818;stroke-width:0.5;" width="4" x="335" y="204.9375"/><rect fill="#F1F1F1" height="2" style="stroke:#181818;stroke-width:0.5;" width="4" x="335" y="208.9375"/><text fill="#000000" font-family="sans-serif" font-size="14" lengthAdjust="spacing" textLength="60" x="272" y="230.9326">Manager</text></g><!--entity inway--><g id="elem_inway"><rect fill="#F1F1F1" height="46.2969" rx="2.5" ry="2.5" style="stroke:#181818;stroke-width:0.5;" width="78" x="117" y="303.9375"/><rect fill="#F1F1F1" height="10" style="stroke:#181818;stroke-width:0.5;" width="15" x="175" y="308.9375"/><rect fill="#F1F1F1" height="2" style="stroke:#181818;stroke-width:0.5;" width="4" x="173" y="310.9375"/><rect fill="#F1F1F1" height="2" style="stroke:#181818;stroke-width:0.5;" width="4" x="173" y="314.9375"/><text fill="#000000" font-family="sans-serif" font-size="14" lengthAdjust="spacing" textLength="38" x="132" y="336.9326">Inway</text></g><!--entity managerProvidingPeer--><g id="elem_managerProvidingPeer"><rect fill="#F1F1F1" height="46.2969" rx="2.5" ry="2.5" style="stroke:#181818;stroke-width:0.5;" width="100" x="101" y="197.9375"/><rect fill="#F1F1F1" height="10" style="stroke:#181818;stroke-width:0.5;" width="15" x="181" y="202.9375"/><rect fill="#F1F1F1" height="2" style="stroke:#181818;stroke-width:0.5;" width="4" x="179" y="204.9375"/><rect fill="#F1F1F1" height="2" style="stroke:#181818;stroke-width:0.5;" width="4" x="179" y="208.9375"/><text fill="#000000" font-family="sans-serif" font-size="14" lengthAdjust="spacing" textLength="60" x="116" y="230.9326">Manager</text></g><!--link managerProvidingPeer to managerConsumingPeer--><g id="link_managerProvidingPeer_managerConsumingPeer"><path d="M206.22,213.9375 C206.22,213.9375 251.88,213.9375 251.88,213.9375 " fill="none" id="managerProvidingPeer-managerConsumingPeer" style="stroke:#008000;stroke-width:2.0;"/><polygon fill="#008000" points="201.22,213.9375,210.22,217.9375,206.22,213.9375,210.22,209.9375,201.22,213.9375" style="stroke:#008000;stroke-width:2.0;"/><polygon fill="#008000" points="256.88,213.9375,247.88,209.9375,251.88,213.9375,247.88,217.9375,256.88,213.9375" style="stroke:#008000;stroke-width:2.0;"/></g><!--reverse link directory to managerProvidingPeer--><g id="link_directory_managerProvidingPeer"><path d="M189.5,142.9375 C189.5,142.9375 189.5,197.6175 189.5,197.6175 " fill="none" id="directory-backto-managerProvidingPeer" style="stroke:#008000;stroke-width:2.0;"/><polygon fill="#008000" points="189.5,137.9375,185.5,146.9375,189.5,142.9375,193.5,146.9375,189.5,137.9375" style="stroke:#008000;stroke-width:2.0;"/></g><!--reverse link directory to managerConsumingPeer--><g id="link_directory_managerConsumingPeer"><path d="M268.5,142.9375 C268.5,142.9375 268.5,197.6175 268.5,197.6175 " fill="none" id="directory-backto-managerConsumingPeer" style="stroke:#008000;stroke-width:2.0;"/><polygon fill="#008000" points="268.5,137.9375,264.5,146.9375,268.5,142.9375,272.5,146.9375,268.5,137.9375" style="stroke:#008000;stroke-width:2.0;"/></g><!--reverse link inway to outway--><g id="link_inway_outway"><path d="M200.01,334.9375 C200.01,334.9375 257.28,334.9375 257.28,334.9375 " fill="none" id="inway-backto-outway" style="stroke:#008000;stroke-width:2.0;"/><polygon fill="#008000" points="195.01,334.9375,204.01,338.9375,200.01,334.9375,204.01,330.9375,195.01,334.9375" style="stroke:#008000;stroke-width:2.0;"/></g><!--reverse link managerProvidingPeer to outway--><g id="link_managerProvidingPeer_outway"><path d="M206.28,228.9375 C206.28,228.9375 229,228.9375 229,228.9375 C229,228.9375 229,319.9375 229,319.9375 C229,319.9375 242.17,319.9375 257.4,319.9375 " fill="none" id="managerProvidingPeer-backto-outway" style="stroke:#008000;stroke-width:2.0;"/><polygon fill="#008000" points="201.28,228.9375,210.28,232.9375,206.28,228.9375,210.28,224.9375,201.28,228.9375" style="stroke:#008000;stroke-width:2.0;"/></g><!--reverse link managerConsumingPeer to outway--><!--reverse link managerProvidingPeer to inway--><!--SRC=[XP5DIyD048Rl-ok6UhNIIm-A25911CM0FGZYOPkT9el9J9Xih4NwtzryzsFLsyx7-pwpCobgWt852nPKpheC8Ly-la3CH1WxorJ2nheKbbAL3cufJbdWzM8-kuGOnTcrZRN3Kgcrw1nXSYzS5HFuLW1TPk4zgjnI0X6Yj2NmWBnWGdBmNBcDte8kWPlNKNdof4adjT1tvErxiAmTVVzkf4N2dzOSq_p_Uhy7wcYMUjW_jC5oZpOgxgpuHR4qdgOFr4wfqB1mFNrRSMREpn91fFTiUXF6X99mgAsyTWG6QNy9sct3wJpjOduj1ySTkbDhJ8SA7gin3_OT6ghomrAX_L5XnL-HDirDvxEzV6O9tRP0A3ZRra6enk9I_W40]--></g></svg>