<?xml version="1.0" encoding="us-ascii" standalone="no"?><svg xmlns="http://www.w3.org/2000/svg" xmlns:xlink="http://www.w3.org/1999/xlink" contentStyleType="text/css" height="417px" preserveAspectRatio="none" style="width:662px;height:417px;background:#FFFFFF;" version="1.1" viewBox="0 0 662 417" width="662px" zoomAndPan="magnify"><defs/><g><text fill="#000000" font-family="sans-serif" font-size="14" font-weight="bold" lengthAdjust="spacing" textLength="174" x="240" y="40.6357">Contract Management</text><rect fill="#DDDDDD" height="348.625" style="stroke:none;stroke-width:0.5;" width="110" x="51" y="55.9375"/><text fill="#000000" font-family="sans-serif" font-size="13" font-weight="bold" lengthAdjust="spacing" textLength="104" x="54" y="68.0044">Initiating Peer</text><rect fill="#DDDDDD" height="348.625" style="stroke:none;stroke-width:0.5;" width="84" x="302" y="55.9375"/><text fill="#000000" font-family="sans-serif" font-size="13" font-weight="bold" lengthAdjust="spacing" textLength="67" x="310.5" y="68.0044">Directory</text><rect fill="#DDDDDD" height="348.625" style="stroke:none;stroke-width:0.5;" width="116" x="488" y="55.9375"/><text fill="#000000" font-family="sans-serif" font-size="13" font-weight="bold" lengthAdjust="spacing" textLength="110" x="491" y="68.0044">Receiving Peer</text><rect fill="#FFFFFF" height="29.1328" style="stroke:#181818;stroke-width:1.0;" width="10" x="339" y="161.6328"/><rect fill="#FFFFFF" height="181.6641" style="stroke:#181818;stroke-width:1.0;" width="10" x="541" y="219.8984"/><rect fill="none" height="139.6641" style="stroke:#000000;stroke-width:1.5;" width="534" x="59" y="123.3672"/><rect fill="none" height="81.3984" style="stroke:#000000;stroke-width:1.5;" width="534" x="59" y="277.0313"/><line style="stroke:#181818;stroke-width:0.5;stroke-dasharray:5.0,5.0;" x1="106" x2="106" y1="106.3672" y2="410.5625"/><line style="stroke:#181818;stroke-width:0.5;stroke-dasharray:5.0,5.0;" x1="344" x2="344" y1="106.3672" y2="410.5625"/><line style="stroke:#181818;stroke-width:0.5;stroke-dasharray:5.0,5.0;" x1="546" x2="546" y1="106.3672" y2="410.5625"/><rect fill="#E2E2F0" height="30.2969" rx="2.5" ry="2.5" style="stroke:#181818;stroke-width:0.5;" width="74" x="69" y="75.0703"/><text fill="#000000" font-family="sans-serif" font-size="14" lengthAdjust="spacing" textLength="60" x="76" y="95.0654">Manager</text><rect fill="#E2E2F0" height="30.2969" rx="2.5" ry="2.5" style="stroke:#181818;stroke-width:0.5;" width="76" x="306" y="75.0703"/><text fill="#000000" font-family="sans-serif" font-size="14" lengthAdjust="spacing" textLength="62" x="313" y="95.0654">Directory</text><rect fill="#E2E2F0" height="30.2969" rx="2.5" ry="2.5" style="stroke:#181818;stroke-width:0.5;" width="74" x="509" y="75.0703"/><text fill="#000000" font-family="sans-serif" font-size="14" lengthAdjust="spacing" textLength="60" x="516" y="95.0654">Manager</text><rect fill="#FFFFFF" height="29.1328" style="stroke:#181818;stroke-width:1.0;" width="10" x="339" y="161.6328"/><rect fill="#FFFFFF" height="181.6641" style="stroke:#181818;stroke-width:1.0;" width="10" x="541" y="219.8984"/><path d="M59,123.3672 L136,123.3672 L136,130.5 L126,140.5 L59,140.5 L59,123.3672 " fill="#EEEEEE" style="stroke:#000000;stroke-width:1.5;"/><rect fill="none" height="139.6641" style="stroke:#000000;stroke-width:1.5;" width="534" x="59" y="123.3672"/><text fill="#000000" font-family="sans-serif" font-size="13" font-weight="bold" lengthAdjust="spacing" textLength="32" x="74" y="136.4341">loop</text><text fill="#000000" font-family="sans-serif" font-size="11" font-weight="bold" lengthAdjust="spacing" textLength="203" x="151" y="135.5776">[For each Peer on the Contract]</text><polygon fill="#181818" points="327,157.6328,337,161.6328,327,165.6328,331,161.6328" style="stroke:#181818;stroke-width:1.0;"/><line style="stroke:#181818;stroke-width:1.0;" x1="106" x2="333" y1="161.6328" y2="161.6328"/><text fill="#000000" font-family="sans-serif" font-size="13" font-weight="bold" lengthAdjust="spacing" textLength="9" x="113" y="156.5669">1</text><text fill="#000000" font-family="sans-serif" font-size="13" lengthAdjust="spacing" textLength="187" x="126" y="156.5669">Get Manager address of Peer</text><polygon fill="#181818" points="117,186.7656,107,190.7656,117,194.7656,113,190.7656" style="stroke:#181818;stroke-width:1.0;"/><line style="stroke:#181818;stroke-width:1.0;stroke-dasharray:2.0,2.0;" x1="111" x2="343" y1="190.7656" y2="190.7656"/><text fill="#000000" font-family="sans-serif" font-size="13" font-weight="bold" lengthAdjust="spacing" textLength="9" x="123" y="185.6997">2</text><text fill="#000000" font-family="sans-serif" font-size="13" lengthAdjust="spacing" textLength="160" x="136" y="185.6997">Manager address of Peer</text><polygon fill="#181818" points="529,215.8984,539,219.8984,529,223.8984,533,219.8984" style="stroke:#181818;stroke-width:1.0;"/><line style="stroke:#181818;stroke-width:1.0;" x1="106" x2="535" y1="219.8984" y2="219.8984"/><text fill="#000000" font-family="sans-serif" font-size="13" font-weight="bold" lengthAdjust="spacing" textLength="9" x="113" y="214.8325">3</text><text fill="#000000" font-family="sans-serif" font-size="13" lengthAdjust="spacing" textLength="114" x="126" y="214.8325">Contract proposal</text><path d="M256,232.8984 L256,257.8984 L431,257.8984 L431,242.8984 L421,232.8984 L256,232.8984 " fill="#FEFFDD" style="stroke:#181818;stroke-width:0.5;"/><path d="M421,232.8984 L421,242.8984 L431,242.8984 L421,232.8984 " fill="#FEFFDD" style="stroke:#181818;stroke-width:0.5;"/><text fill="#000000" font-family="sans-serif" font-size="13" lengthAdjust="spacing" textLength="154" x="262" y="249.9653">Signed by initiating Peer</text><path d="M59,277.0313 L136,277.0313 L136,284.1641 L126,294.1641 L59,294.1641 L59,277.0313 " fill="#EEEEEE" style="stroke:#000000;stroke-width:1.5;"/><rect fill="none" height="81.3984" style="stroke:#000000;stroke-width:1.5;" width="534" x="59" y="277.0313"/><text fill="#000000" font-family="sans-serif" font-size="13" font-weight="bold" lengthAdjust="spacing" textLength="32" x="74" y="290.0981">loop</text><text fill="#000000" font-family="sans-serif" font-size="11" font-weight="bold" lengthAdjust="spacing" textLength="203" x="151" y="289.2417">[For each Peer on the Contract]</text><polygon fill="#181818" points="117,311.2969,107,315.2969,117,319.2969,113,315.2969" style="stroke:#181818;stroke-width:1.0;"/><line style="stroke:#181818;stroke-width:1.0;" x1="111" x2="540" y1="315.2969" y2="315.2969"/><text fill="#000000" font-family="sans-serif" font-size="13" font-weight="bold" lengthAdjust="spacing" textLength="9" x="123" y="310.231">4</text><text fill="#000000" font-family="sans-serif" font-size="13" lengthAdjust="spacing" textLength="108" x="136" y="310.231">Accept signature</text><path d="M246,328.2969 L246,353.2969 L441,353.2969 L441,338.2969 L431,328.2969 L246,328.2969 " fill="#FEFFDD" style="stroke:#181818;stroke-width:0.5;"/><path d="M431,328.2969 L431,338.2969 L441,338.2969 L431,328.2969 " fill="#FEFFDD" style="stroke:#181818;stroke-width:0.5;"/><text fill="#000000" font-family="sans-serif" font-size="13" lengthAdjust="spacing" textLength="174" x="252" y="345.3638">Signed by receiving Peer(s)</text><path d="M273,370.4297 L273,395.4297 L415,395.4297 L415,380.4297 L405,370.4297 L273,370.4297 " fill="#FEFFDD" style="stroke:#181818;stroke-width:0.5;"/><path d="M405,370.4297 L405,380.4297 L415,380.4297 L405,370.4297 " fill="#FEFFDD" style="stroke:#181818;stroke-width:0.5;"/><text fill="#000000" font-family="sans-serif" font-size="13" lengthAdjust="spacing" textLength="121" x="279" y="387.4966">Signed by all Peers</text><text fill="#888888" font-family="sans-serif" font-size="10" lengthAdjust="spacing" textLength="24" x="630" y="14.2822">Core</text><!--SRC=[ZPB1QiCm38RlVWgHNJRAO2tiaiDWxTZOOL2s9r0TjJ5Df4nMIllsSnAQhepHtcnBdtxzah4ruRPUaRgIi23DOI5Ape9Lr9tP5Bt11p9kg2OsvrQoX-oTWmMqm1jO4cdc01fK2puqo0RP06W66A6UEk824ZUmBq79c-ZX3tMAT5nnl9tZd-GfxAvJdesegqGQU1K5Gb_sA0Y3bJIwTFKKxfzEiZ2PG0vlTBIlW4MX52F8kY_WbAnL_ZSyrAjdGw5nc8rA8n4hns84ialag9d3LzWmfPuF4Cvdt5lfN5pdPTPhJtDuzfuQWvZgOcgNBidgsNnluzqluGieLbKFHUVYDd3Q2zOGwRibzZIN_Lmq_R65LAdrczGdnvJIVQfJTjhLCisnatzyS6Ke2DOYbfv_0000]--></g></svg>