<?xml version="1.0" encoding="us-ascii" standalone="no"?><svg xmlns="http://www.w3.org/2000/svg" xmlns:xlink="http://www.w3.org/1999/xlink" contentStyleType="text/css" height="476px" preserveAspectRatio="none" style="width:946px;height:476px;background:#FFFFFF;" version="1.1" viewBox="0 0 946 476" width="946px" zoomAndPan="magnify"><defs/><g><text fill="#000000" font-family="sans-serif" font-size="14" font-weight="bold" lengthAdjust="spacing" textLength="702" x="118" y="40.6357">Create an authorization to connect to a Service that is offered on behalf of another Peer</text><rect fill="#DDDDDD" height="407.7578" style="stroke:none;stroke-width:0.5;" width="127" x="51" y="55.9375"/><text fill="#000000" font-family="sans-serif" font-size="13" font-weight="bold" lengthAdjust="spacing" textLength="121" x="54" y="68.0044">Consuming Peer</text><rect fill="#DDDDDD" height="407.7578" style="stroke:none;stroke-width:0.5;" width="115" x="425" y="55.9375"/><text fill="#000000" font-family="sans-serif" font-size="13" font-weight="bold" lengthAdjust="spacing" textLength="109" x="428" y="68.0044">Providing Peer</text><rect fill="#DDDDDD" height="407.7578" style="stroke:none;stroke-width:0.5;" width="224" x="642" y="55.9375"/><text fill="#000000" font-family="sans-serif" font-size="13" font-weight="bold" lengthAdjust="spacing" textLength="218" x="645" y="68.0044">Delegator Service Publication</text><line style="stroke:#181818;stroke-width:0.5;stroke-dasharray:5.0,5.0;" x1="114.5" x2="114.5" y1="106.3672" y2="469.6953"/><line style="stroke:#181818;stroke-width:0.5;stroke-dasharray:5.0,5.0;" x1="482.5" x2="482.5" y1="106.3672" y2="469.6953"/><line style="stroke:#181818;stroke-width:0.5;stroke-dasharray:5.0,5.0;" x1="754" x2="754" y1="106.3672" y2="469.6953"/><rect fill="#E2E2F0" height="30.2969" rx="2.5" ry="2.5" style="stroke:#181818;stroke-width:0.5;" width="74" x="77.5" y="75.0703"/><text fill="#000000" font-family="sans-serif" font-size="14" lengthAdjust="spacing" textLength="60" x="84.5" y="95.0654">Manager</text><rect fill="#E2E2F0" height="30.2969" rx="2.5" ry="2.5" style="stroke:#181818;stroke-width:0.5;" width="74" x="445.5" y="75.0703"/><text fill="#000000" font-family="sans-serif" font-size="14" lengthAdjust="spacing" textLength="60" x="452.5" y="95.0654">Manager</text><rect fill="#E2E2F0" height="30.2969" rx="2.5" ry="2.5" style="stroke:#181818;stroke-width:0.5;" width="74" x="717" y="75.0703"/><text fill="#000000" font-family="sans-serif" font-size="14" lengthAdjust="spacing" textLength="60" x="724" y="95.0654">Manager</text><line style="stroke:#181818;stroke-width:1.0;" x1="114.5" x2="156.5" y1="137.5" y2="137.5"/><line style="stroke:#181818;stroke-width:1.0;" x1="156.5" x2="156.5" y1="137.5" y2="150.5"/><line style="stroke:#181818;stroke-width:1.0;" x1="115.5" x2="156.5" y1="150.5" y2="150.5"/><polygon fill="#181818" points="125.5,146.5,115.5,150.5,125.5,154.5,121.5,150.5" style="stroke:#181818;stroke-width:1.0;"/><text fill="#000000" font-family="sans-serif" font-size="13" font-weight="bold" lengthAdjust="spacing" textLength="9" x="121.5" y="132.4341">1</text><text fill="#000000" font-family="sans-serif" font-size="13" lengthAdjust="spacing" textLength="143" x="134.5" y="132.4341">Create Contract with a</text><text fill="#000000" font-family="sans-serif" font-size="13" lengthAdjust="spacing" text-decoration="underline" textLength="155" x="281.5" y="132.4341">ServiceConnectionGrant</text><line style="stroke:#181818;stroke-width:1.0;" x1="114.5" x2="156.5" y1="179.6328" y2="179.6328"/><line style="stroke:#181818;stroke-width:1.0;" x1="156.5" x2="156.5" y1="179.6328" y2="192.6328"/><line style="stroke:#181818;stroke-width:1.0;" x1="115.5" x2="156.5" y1="192.6328" y2="192.6328"/><polygon fill="#181818" points="125.5,188.6328,115.5,192.6328,125.5,196.6328,121.5,192.6328" style="stroke:#181818;stroke-width:1.0;"/><text fill="#000000" font-family="sans-serif" font-size="13" font-weight="bold" lengthAdjust="spacing" textLength="9" x="121.5" y="174.5669">2</text><text fill="#000000" font-family="sans-serif" font-size="13" lengthAdjust="spacing" textLength="87" x="134.5" y="174.5669">Sign Contract</text><polygon fill="#181818" points="470.5,217.7656,480.5,221.7656,470.5,225.7656,474.5,221.7656" style="stroke:#181818;stroke-width:1.0;"/><line style="stroke:#181818;stroke-width:1.0;" x1="114.5" x2="476.5" y1="221.7656" y2="221.7656"/><text fill="#000000" font-family="sans-serif" font-size="13" font-weight="bold" lengthAdjust="spacing" textLength="9" x="121.5" y="216.6997">3</text><text fill="#000000" font-family="sans-serif" font-size="13" lengthAdjust="spacing" textLength="105" x="134.5" y="216.6997">Submit Contract</text><polygon fill="#181818" points="742,246.8984,752,250.8984,742,254.8984,746,250.8984" style="stroke:#181818;stroke-width:1.0;"/><line style="stroke:#181818;stroke-width:1.0;" x1="114.5" x2="748" y1="250.8984" y2="250.8984"/><text fill="#000000" font-family="sans-serif" font-size="13" font-weight="bold" lengthAdjust="spacing" textLength="9" x="121.5" y="245.8325">4</text><text fill="#000000" font-family="sans-serif" font-size="13" lengthAdjust="spacing" textLength="105" x="134.5" y="245.8325">Submit Contract</text><line style="stroke:#181818;stroke-width:1.0;" x1="482.5" x2="524.5" y1="280.0313" y2="280.0313"/><line style="stroke:#181818;stroke-width:1.0;" x1="524.5" x2="524.5" y1="280.0313" y2="293.0313"/><line style="stroke:#181818;stroke-width:1.0;" x1="483.5" x2="524.5" y1="293.0313" y2="293.0313"/><polygon fill="#181818" points="493.5,289.0313,483.5,293.0313,493.5,297.0313,489.5,293.0313" style="stroke:#181818;stroke-width:1.0;"/><text fill="#000000" font-family="sans-serif" font-size="13" font-weight="bold" lengthAdjust="spacing" textLength="9" x="489.5" y="274.9653">5</text><text fill="#000000" font-family="sans-serif" font-size="13" lengthAdjust="spacing" textLength="87" x="502.5" y="274.9653">Sign Contract</text><polygon fill="#181818" points="125.5,318.1641,115.5,322.1641,125.5,326.1641,121.5,322.1641" style="stroke:#181818;stroke-width:1.0;"/><line style="stroke:#181818;stroke-width:1.0;" x1="119.5" x2="481.5" y1="322.1641" y2="322.1641"/><text fill="#000000" font-family="sans-serif" font-size="13" font-weight="bold" lengthAdjust="spacing" textLength="9" x="131.5" y="317.0981">6</text><text fill="#000000" font-family="sans-serif" font-size="13" lengthAdjust="spacing" textLength="103" x="144.5" y="317.0981">Accept Contract</text><polygon fill="#181818" points="742,347.2969,752,351.2969,742,355.2969,746,351.2969" style="stroke:#181818;stroke-width:1.0;"/><line style="stroke:#181818;stroke-width:1.0;" x1="482.5" x2="748" y1="351.2969" y2="351.2969"/><text fill="#000000" font-family="sans-serif" font-size="13" font-weight="bold" lengthAdjust="spacing" textLength="9" x="489.5" y="346.231">7</text><text fill="#000000" font-family="sans-serif" font-size="13" lengthAdjust="spacing" textLength="103" x="502.5" y="346.231">Accept Contract</text><line style="stroke:#181818;stroke-width:1.0;" x1="754" x2="796" y1="380.4297" y2="380.4297"/><line style="stroke:#181818;stroke-width:1.0;" x1="796" x2="796" y1="380.4297" y2="393.4297"/><line style="stroke:#181818;stroke-width:1.0;" x1="755" x2="796" y1="393.4297" y2="393.4297"/><polygon fill="#181818" points="765,389.4297,755,393.4297,765,397.4297,761,393.4297" style="stroke:#181818;stroke-width:1.0;"/><text fill="#000000" font-family="sans-serif" font-size="13" font-weight="bold" lengthAdjust="spacing" textLength="9" x="761" y="375.3638">8</text><text fill="#000000" font-family="sans-serif" font-size="13" lengthAdjust="spacing" textLength="87" x="774" y="375.3638">Sign Contract</text><polygon fill="#181818" points="493.5,418.5625,483.5,422.5625,493.5,426.5625,489.5,422.5625" style="stroke:#181818;stroke-width:1.0;"/><line style="stroke:#181818;stroke-width:1.0;" x1="487.5" x2="753" y1="422.5625" y2="422.5625"/><text fill="#000000" font-family="sans-serif" font-size="13" font-weight="bold" lengthAdjust="spacing" textLength="9" x="499.5" y="417.4966">9</text><text fill="#000000" font-family="sans-serif" font-size="13" lengthAdjust="spacing" textLength="103" x="512.5" y="417.4966">Accept Contract</text><polygon fill="#181818" points="125.5,447.6953,115.5,451.6953,125.5,455.6953,121.5,451.6953" style="stroke:#181818;stroke-width:1.0;"/><line style="stroke:#181818;stroke-width:1.0;" x1="119.5" x2="753" y1="451.6953" y2="451.6953"/><text fill="#000000" font-family="sans-serif" font-size="13" font-weight="bold" lengthAdjust="spacing" textLength="18" x="131.5" y="446.6294">10</text><text fill="#000000" font-family="sans-serif" font-size="13" lengthAdjust="spacing" textLength="103" x="153.5" y="446.6294">Accept Contract</text><text fill="#888888" font-family="sans-serif" font-size="10" lengthAdjust="spacing" textLength="24" x="914" y="14.2822">Core</text><!--SRC=[fPD1QiD034NtFeL8ruLkkkcYqAJGLS6G0nXvBDj3RIaTQzBGqrTnWfi4nt7fJWZzf_b_44OLZcrE8Qa92mfFi990YNfjoEf0g0J8W55h2VuRrGk32ZXX9gVx4c5DOUiTWTQeu3kGigH01TXeJZKsfNMC8bfJW9HiMvBB3XOhuIwsdgk-kKW0DXZKExz1LbYy8sDbVS0EsaCzA7eASG46EjBI85jV_8KsA4PehzHGXIfXS9V6lF6kJs0EV00SzIVotrLZjk3-UTJky1_MrO0M_fVNskBFikEArU5JRCDRi6TbsH_vQr_nGB-bFGlFj35llSvMJwHpbNMsSU8bOowkQIyIU76EDlCtJxgumfhGpCvdpE4yxaLM_thZZUoIxiEpNGcsqD5d97QqbDrIGh6NDdPPTpR8dOqGwycqNKQAHN_9Zmz9xGk2KaJt1_C3]--></g></svg>