<?xml version="1.0" encoding="us-ascii" standalone="no"?><svg xmlns="http://www.w3.org/2000/svg" xmlns:xlink="http://www.w3.org/1999/xlink" contentStyleType="text/css" height="531px" preserveAspectRatio="none" style="width:630px;height:531px;background:#FFFFFF;" version="1.1" viewBox="0 0 630 531" width="630px" zoomAndPan="magnify"><defs/><g><text fill="#000000" font-family="sans-serif" font-size="14" font-weight="bold" lengthAdjust="spacing" textLength="123" x="246.93" y="22.9951">Contract States</text><ellipse cx="179.86" cy="53.2969" fill="#181818" rx="10" ry="10" style="stroke:none;stroke-width:1.0;"/><g id="PROPOSED"><rect fill="#F1F1F1" height="50" rx="12.5" ry="12.5" style="stroke:#181818;stroke-width:0.5;" width="99" x="130.36" y="140.2969"/><line style="stroke:#181818;stroke-width:0.5;" x1="130.36" x2="229.36" y1="166.5938" y2="166.5938"/><text fill="#000000" font-family="sans-serif" font-size="14" lengthAdjust="spacing" textLength="79" x="140.36" y="158.292">PROPOSED</text></g><g id="REJECTED"><rect fill="#F1F1F1" height="50" rx="12.5" ry="12.5" style="stroke:#181818;stroke-width:0.5;" width="90" x="102.86" y="267.2969"/><line style="stroke:#181818;stroke-width:0.5;" x1="102.86" x2="192.86" y1="293.5938" y2="293.5938"/><text fill="#000000" font-family="sans-serif" font-size="14" lengthAdjust="spacing" textLength="70" x="112.86" y="285.292">REJECTED</text></g><g id="VALID"><rect fill="#F1F1F1" height="50" rx="12.5" ry="12.5" style="stroke:#181818;stroke-width:0.5;" width="59" x="366.36" y="267.2969"/><line style="stroke:#181818;stroke-width:0.5;" x1="366.36" x2="425.36" y1="293.5938" y2="293.5938"/><text fill="#000000" font-family="sans-serif" font-size="14" lengthAdjust="spacing" textLength="39" x="376.36" y="285.292">VALID</text></g><g id="REVOKED"><rect fill="#F1F1F1" height="50" rx="12.5" ry="12.5" style="stroke:#181818;stroke-width:0.5;" width="88" x="200.86" y="394.2969"/><line style="stroke:#181818;stroke-width:0.5;" x1="200.86" x2="288.86" y1="420.5938" y2="420.5938"/><text fill="#000000" font-family="sans-serif" font-size="14" lengthAdjust="spacing" textLength="68" x="210.86" y="412.292">REVOKED</text></g><g id="EXPIRED"><rect fill="#F1F1F1" height="50" rx="12.5" ry="12.5" style="stroke:#181818;stroke-width:0.5;" width="80" x="355.86" y="394.2969"/><line style="stroke:#181818;stroke-width:0.5;" x1="355.86" x2="435.86" y1="420.5938" y2="420.5938"/><text fill="#000000" font-family="sans-serif" font-size="14" lengthAdjust="spacing" textLength="60" x="365.86" y="412.292">EXPIRED</text></g><ellipse cx="244.86" cy="515.2969" fill="none" rx="10" ry="10" style="stroke:#181818;stroke-width:1.0;"/><ellipse cx="245.36" cy="515.7969" fill="#181818" rx="6" ry="6" style="stroke:none;stroke-width:1.0;"/><!--link *start* to PROPOSED--><g id="link_*start*_PROPOSED"><path d="M179.86,63.2969 C179.86,78.7569 179.86,110.9769 179.86,134.8969 " fill="none" id="*start*-to-PROPOSED" style="stroke:#181818;stroke-width:1.0;"/><polygon fill="#181818" points="179.86,140.1669,183.86,131.1669,179.86,135.1669,175.86,131.1669,179.86,140.1669" style="stroke:#181818;stroke-width:1.0;"/><text fill="#000000" font-family="sans-serif" font-size="13" lengthAdjust="spacing" textLength="200" x="180.86" y="106.3638">Proposal sent to involved Peers</text></g><!--link PROPOSED to REJECTED--><g id="link_PROPOSED_REJECTED"><path d="M130.3,169.5069 C95.37,174.6569 50.88,187.6969 27.86,220.2969 C6,251.2669 55.81,270.9269 97.78,281.5069 " fill="none" id="PROPOSED-to-REJECTED" style="stroke:#181818;stroke-width:1.0;"/><polygon fill="#181818" points="102.85,282.7569,95.0554,276.7366,97.9926,281.5711,93.1581,284.5084,102.85,282.7569" style="stroke:#181818;stroke-width:1.0;"/><text fill="#000000" font-family="sans-serif" font-size="13" lengthAdjust="spacing" textLength="107" x="28.86" y="233.3638">End date passed</text></g><!--link PROPOSED to REJECTED--><g id="link_PROPOSED_REJECTED"><path d="M173.69,190.3969 C168.45,210.8869 160.9,240.3769 155.32,262.1769 " fill="none" id="PROPOSED-to-REJECTED-1" style="stroke:#181818;stroke-width:1.0;"/><polygon fill="#181818" points="154.02,267.2669,160.1317,259.5437,155.2629,262.4238,152.3828,257.5551,154.02,267.2669" style="stroke:#181818;stroke-width:1.0;"/><text fill="#000000" font-family="sans-serif" font-size="13" lengthAdjust="spacing" textLength="174" x="166.86" y="233.3638">Peer adds 'reject' signature</text></g><!--link PROPOSED to VALID--><g id="link_PROPOSED_VALID"><path d="M229.41,172.8769 C265.74,179.7369 314.66,193.4369 349.86,220.2969 C364.13,231.1869 375.26,247.8469 382.99,262.3069 " fill="none" id="PROPOSED-to-VALID" style="stroke:#181818;stroke-width:1.0;"/><polygon fill="#181818" points="385.49,267.1069,384.9046,257.2754,383.1913,262.6666,377.8002,260.9533,385.49,267.1069" style="stroke:#181818;stroke-width:1.0;"/><text fill="#000000" font-family="sans-serif" font-size="13" lengthAdjust="spacing" textLength="256" x="366.86" y="233.3638">All involved Peers add 'accept' signature</text></g><!--link VALID to REVOKED--><g id="link_VALID_REVOKED"><path d="M366.24,292.4169 C325.19,293.0069 252.2,300.9969 217.86,347.2969 C208.62,359.7669 213.58,375.7769 221.64,389.4369 " fill="none" id="VALID-to-REVOKED" style="stroke:#181818;stroke-width:1.0;"/><polygon fill="#181818" points="224.48,393.9669,223.1168,384.2128,221.8364,389.7229,216.3264,388.4425,224.48,393.9669" style="stroke:#181818;stroke-width:1.0;"/><text fill="#000000" font-family="sans-serif" font-size="13" lengthAdjust="spacing" textLength="181" x="218.86" y="360.3638">Peer adds 'revoke' signature</text></g><!--link VALID to EXPIRED--><g id="link_VALID_EXPIRED"><path d="M403.96,317.4969 C407.6,331.1769 410.72,348.6169 408.86,364.2969 C407.89,372.4669 406.13,381.1869 404.2,389.1769 " fill="none" id="VALID-to-EXPIRED" style="stroke:#181818;stroke-width:1.0;"/><polygon fill="#181818" points="402.99,394.0569,409.0534,386.2957,404.2027,389.2062,401.2923,384.3554,402.99,394.0569" style="stroke:#181818;stroke-width:1.0;"/><text fill="#000000" font-family="sans-serif" font-size="13" lengthAdjust="spacing" textLength="107" x="409.86" y="360.3638">End date passed</text></g><!--link REVOKED to *end*--><g id="link_REVOKED_*end*"><path d="M244.86,444.5069 C244.86,462.1369 244.86,485.4269 244.86,500.1369 " fill="none" id="REVOKED-to-*end*" style="stroke:#181818;stroke-width:1.0;"/><polygon fill="#181818" points="244.86,505.1369,248.86,496.1369,244.86,500.1369,240.86,496.1369,244.86,505.1369" style="stroke:#181818;stroke-width:1.0;"/></g><!--link REJECTED to *end*--><g id="link_REJECTED_*end*"><path d="M149.76,317.3069 C152.99,348.1969 161.46,402.8069 182.86,444.2969 C195.68,469.1369 219.31,492.2269 233.4,504.6869 " fill="none" id="REJECTED-to-*end*" style="stroke:#181818;stroke-width:1.0;"/><polygon fill="#181818" points="237.45,508.2069,233.2916,499.2789,233.68,504.9224,228.0365,505.3109,237.45,508.2069" style="stroke:#181818;stroke-width:1.0;"/></g><!--link EXPIRED to *end*--><g id="link_EXPIRED_*end*"><path d="M356.98,444.5069 C324.16,464.9369 279.16,492.9469 257.51,506.4269 " fill="none" id="EXPIRED-to-*end*" style="stroke:#181818;stroke-width:1.0;"/><polygon fill="#181818" points="253.01,509.2269,262.7641,507.8637,257.254,506.5833,258.5343,501.0732,253.01,509.2269" style="stroke:#181818;stroke-width:1.0;"/></g><!--SRC=[TT3D2eCm30Vmkq-Hcp3m1NOOYEjX7s1HaS7OeRHXk9LMsipddrKiA5kF8Rz_cZGTQOJ26d924jGa27sIt7SFc5wM7O1N9IzhTeGzS6TxwuK6ZuQ0B7Hci7f01HpH-IIs1bUnCokQoJ6ZG8tHq0llKVtj2oaWbFAGEdoXf1HyzpI2FWxNgCslfo1ohJUV21vI8INsApwBUM1RNiQSxS31ll6tO3T-gcQnNIM6XRxnRabSPob4l1I-]--></g></svg>