<?xml version="1.0" encoding="us-ascii" standalone="no"?><svg xmlns="http://www.w3.org/2000/svg" xmlns:xlink="http://www.w3.org/1999/xlink" contentStyleType="text/css" height="615px" preserveAspectRatio="none" style="width:1119px;height:615px;background:#FFFFFF;" version="1.1" viewBox="0 0 1119 615" width="1119px" zoomAndPan="magnify"><defs/><g><text fill="#000000" font-family="sans-serif" font-size="14" font-weight="bold" lengthAdjust="spacing" textLength="221" x="445.25" y="40.6357">Write to the TransactionLog</text><rect fill="#DDDDDD" height="546.6875" style="stroke:none;stroke-width:0.5;" width="374" x="51" y="55.9375"/><text fill="#000000" font-family="sans-serif" font-size="13" font-weight="bold" lengthAdjust="spacing" textLength="74" x="201" y="68.0044">Consumer</text><rect fill="#DDDDDD" height="546.6875" style="stroke:none;stroke-width:0.5;" width="405" x="656.5" y="55.9375"/><text fill="#000000" font-family="sans-serif" font-size="13" font-weight="bold" lengthAdjust="spacing" textLength="62" x="828" y="68.0044">Provider</text><line style="stroke:#181818;stroke-width:0.5;stroke-dasharray:5.0,5.0;" x1="81" x2="81" y1="137.3672" y2="608.625"/><line style="stroke:#181818;stroke-width:0.5;stroke-dasharray:5.0,5.0;" x1="174" x2="174" y1="137.3672" y2="608.625"/><line style="stroke:#181818;stroke-width:0.5;stroke-dasharray:5.0,5.0;" x1="388" x2="388" y1="137.3672" y2="608.625"/><line style="stroke:#181818;stroke-width:0.5;stroke-dasharray:5.0,5.0;" x1="686.5" x2="686.5" y1="137.3672" y2="608.625"/><line style="stroke:#181818;stroke-width:0.5;stroke-dasharray:5.0,5.0;" x1="927.5" x2="927.5" y1="137.3672" y2="608.625"/><line style="stroke:#181818;stroke-width:0.5;stroke-dasharray:5.0,5.0;" x1="1025.5" x2="1025.5" y1="137.3672" y2="608.625"/><rect fill="#E2E2F0" height="30.2969" rx="2.5" ry="2.5" style="stroke:#181818;stroke-width:0.5;" width="53" x="55" y="106.0703"/><text fill="#000000" font-family="sans-serif" font-size="14" lengthAdjust="spacing" textLength="39" x="62" y="126.0654">Client</text><text fill="#000000" font-family="sans-serif" font-size="14" lengthAdjust="spacing" textLength="106" x="118" y="134.0654">TransactionLog</text><path d="M156,85.0703 C156,75.0703 174,75.0703 174,75.0703 C174,75.0703 192,75.0703 192,85.0703 L192,111.0703 C192,121.0703 174,121.0703 174,121.0703 C174,121.0703 156,121.0703 156,111.0703 L156,85.0703 " fill="#E2E2F0" style="stroke:#181818;stroke-width:1.5;"/><path d="M156,85.0703 C156,95.0703 174,95.0703 174,95.0703 C174,95.0703 192,95.0703 192,85.0703 " fill="none" style="stroke:#181818;stroke-width:1.5;"/><rect fill="#E2E2F0" height="30.2969" rx="2.5" ry="2.5" style="stroke:#181818;stroke-width:0.5;" width="65" x="356" y="106.0703"/><text fill="#000000" font-family="sans-serif" font-size="14" lengthAdjust="spacing" textLength="51" x="363" y="126.0654">Outway</text><rect fill="#E2E2F0" height="30.2969" rx="2.5" ry="2.5" style="stroke:#181818;stroke-width:0.5;" width="52" x="660.5" y="106.0703"/><text fill="#000000" font-family="sans-serif" font-size="14" lengthAdjust="spacing" textLength="38" x="667.5" y="126.0654">Inway</text><text fill="#000000" font-family="sans-serif" font-size="14" lengthAdjust="spacing" textLength="106" x="871.5" y="134.0654">TransactionLog</text><path d="M909.5,85.0703 C909.5,75.0703 927.5,75.0703 927.5,75.0703 C927.5,75.0703 945.5,75.0703 945.5,85.0703 L945.5,111.0703 C945.5,121.0703 927.5,121.0703 927.5,121.0703 C927.5,121.0703 909.5,121.0703 909.5,111.0703 L909.5,85.0703 " fill="#E2E2F0" style="stroke:#181818;stroke-width:1.5;"/><path d="M909.5,85.0703 C909.5,95.0703 927.5,95.0703 927.5,95.0703 C927.5,95.0703 945.5,95.0703 945.5,85.0703 " fill="none" style="stroke:#181818;stroke-width:1.5;"/><rect fill="#E2E2F0" height="30.2969" rx="2.5" ry="2.5" style="stroke:#181818;stroke-width:0.5;" width="64" x="993.5" y="106.0703"/><text fill="#000000" font-family="sans-serif" font-size="14" lengthAdjust="spacing" textLength="50" x="1000.5" y="126.0654">Service</text><polygon fill="#181818" points="376.5,164.5,386.5,168.5,376.5,172.5,380.5,168.5" style="stroke:#181818;stroke-width:1.0;"/><line style="stroke:#181818;stroke-width:1.0;" x1="81.5" x2="382.5" y1="168.5" y2="168.5"/><text fill="#000000" font-family="sans-serif" font-size="13" font-weight="bold" lengthAdjust="spacing" textLength="9" x="88.5" y="163.4341">1</text><text fill="#000000" font-family="sans-serif" font-size="13" lengthAdjust="spacing" textLength="52" x="101.5" y="163.4341">Request</text><line style="stroke:#181818;stroke-width:1.0;" x1="388.5" x2="430.5" y1="197.6328" y2="197.6328"/><line style="stroke:#181818;stroke-width:1.0;" x1="430.5" x2="430.5" y1="197.6328" y2="210.6328"/><line style="stroke:#181818;stroke-width:1.0;" x1="389.5" x2="430.5" y1="210.6328" y2="210.6328"/><polygon fill="#181818" points="399.5,206.6328,389.5,210.6328,399.5,214.6328,395.5,210.6328" style="stroke:#181818;stroke-width:1.0;"/><text fill="#000000" font-family="sans-serif" font-size="13" font-weight="bold" lengthAdjust="spacing" textLength="9" x="395.5" y="192.5669">2</text><text fill="#000000" font-family="sans-serif" font-size="13" lengthAdjust="spacing" textLength="72" x="408.5" y="192.5669">Generate a</text><text fill="#000000" font-family="sans-serif" font-size="13" lengthAdjust="spacing" text-decoration="underline" textLength="87" x="484.5" y="192.5669">TransactionID</text><polygon fill="#181818" points="185,250.8984,175,254.8984,185,258.8984,181,254.8984" style="stroke:#181818;stroke-width:1.0;"/><line style="stroke:#181818;stroke-width:1.0;" x1="179" x2="387.5" y1="254.8984" y2="254.8984"/><text fill="#000000" font-family="sans-serif" font-size="13" font-weight="bold" lengthAdjust="spacing" textLength="9" x="191" y="242.2661">3</text><text fill="#000000" font-family="sans-serif" font-size="13" lengthAdjust="spacing" textLength="77" x="204" y="234.6997">Write record</text><text fill="#000000" font-family="sans-serif" font-size="13" lengthAdjust="spacing" textLength="50" x="204" y="249.8325">with the</text><text fill="#000000" font-family="sans-serif" font-size="13" lengthAdjust="spacing" text-decoration="underline" textLength="87" x="258" y="249.8325">TransactionID</text><polygon fill="#181818" points="376.5,280.0313,386.5,284.0313,376.5,288.0313,380.5,284.0313" style="stroke:#181818;stroke-width:1.0;"/><line style="stroke:#181818;stroke-width:1.0;stroke-dasharray:2.0,2.0;" x1="174" x2="382.5" y1="284.0313" y2="284.0313"/><text fill="#000000" font-family="sans-serif" font-size="13" font-weight="bold" lengthAdjust="spacing" textLength="9" x="181" y="278.9653">4</text><text fill="#000000" font-family="sans-serif" font-size="13" lengthAdjust="spacing" textLength="102" x="194" y="278.9653">Record received</text><polygon fill="#181818" points="674.5,324.2969,684.5,328.2969,674.5,332.2969,678.5,328.2969" style="stroke:#181818;stroke-width:1.0;"/><line style="stroke:#181818;stroke-width:1.0;" x1="388.5" x2="680.5" y1="328.2969" y2="328.2969"/><text fill="#000000" font-family="sans-serif" font-size="13" font-weight="bold" lengthAdjust="spacing" textLength="9" x="395.5" y="315.6646">5</text><text fill="#000000" font-family="sans-serif" font-size="13" lengthAdjust="spacing" textLength="52" x="408.5" y="308.0981">Request</text><text fill="#000000" font-family="sans-serif" font-size="13" lengthAdjust="spacing" textLength="50" x="408.5" y="323.231">with the</text><text fill="#000000" font-family="sans-serif" font-size="13" lengthAdjust="spacing" text-decoration="underline" textLength="87" x="462.5" y="323.231">TransactionID</text><text fill="#000000" font-family="sans-serif" font-size="13" lengthAdjust="spacing" textLength="116" x="553.5" y="323.231">in an HTTP header</text><line style="stroke:#181818;stroke-width:1.0;" x1="686.5" x2="728.5" y1="357.4297" y2="357.4297"/><line style="stroke:#181818;stroke-width:1.0;" x1="728.5" x2="728.5" y1="357.4297" y2="370.4297"/><line style="stroke:#181818;stroke-width:1.0;" x1="687.5" x2="728.5" y1="370.4297" y2="370.4297"/><polygon fill="#181818" points="697.5,366.4297,687.5,370.4297,697.5,374.4297,693.5,370.4297" style="stroke:#181818;stroke-width:1.0;"/><text fill="#000000" font-family="sans-serif" font-size="13" font-weight="bold" lengthAdjust="spacing" textLength="9" x="693.5" y="352.3638">6</text><text fill="#000000" font-family="sans-serif" font-size="13" lengthAdjust="spacing" textLength="36" x="706.5" y="352.3638">Parse</text><text fill="#000000" font-family="sans-serif" font-size="13" lengthAdjust="spacing" text-decoration="underline" textLength="87" x="746.5" y="352.3638">TransactionID</text><text fill="#000000" font-family="sans-serif" font-size="13" lengthAdjust="spacing" textLength="83" x="837.5" y="352.3638">from request</text><polygon fill="#181818" points="915.5,410.6953,925.5,414.6953,915.5,418.6953,919.5,414.6953" style="stroke:#181818;stroke-width:1.0;"/><line style="stroke:#181818;stroke-width:1.0;" x1="686.5" x2="921.5" y1="414.6953" y2="414.6953"/><text fill="#000000" font-family="sans-serif" font-size="13" font-weight="bold" lengthAdjust="spacing" textLength="9" x="693.5" y="402.063">7</text><text fill="#000000" font-family="sans-serif" font-size="13" lengthAdjust="spacing" textLength="77" x="706.5" y="394.4966">Write record</text><text fill="#000000" font-family="sans-serif" font-size="13" lengthAdjust="spacing" textLength="50" x="706.5" y="409.6294">with the</text><text fill="#000000" font-family="sans-serif" font-size="13" lengthAdjust="spacing" text-decoration="underline" textLength="87" x="760.5" y="409.6294">TransactionID</text><polygon fill="#181818" points="697.5,439.8281,687.5,443.8281,697.5,447.8281,693.5,443.8281" style="stroke:#181818;stroke-width:1.0;"/><line style="stroke:#181818;stroke-width:1.0;stroke-dasharray:2.0,2.0;" x1="691.5" x2="926.5" y1="443.8281" y2="443.8281"/><text fill="#000000" font-family="sans-serif" font-size="13" font-weight="bold" lengthAdjust="spacing" textLength="9" x="703.5" y="438.7622">8</text><text fill="#000000" font-family="sans-serif" font-size="13" lengthAdjust="spacing" textLength="102" x="716.5" y="438.7622">Record received</text><polygon fill="#181818" points="1013.5,484.0938,1023.5,488.0938,1013.5,492.0938,1017.5,488.0938" style="stroke:#181818;stroke-width:1.0;"/><line style="stroke:#181818;stroke-width:1.0;" x1="686.5" x2="1019.5" y1="488.0938" y2="488.0938"/><text fill="#000000" font-family="sans-serif" font-size="13" font-weight="bold" lengthAdjust="spacing" textLength="9" x="693.5" y="475.4614">9</text><text fill="#000000" font-family="sans-serif" font-size="13" lengthAdjust="spacing" textLength="52" x="706.5" y="467.895">Request</text><text fill="#000000" font-family="sans-serif" font-size="13" lengthAdjust="spacing" textLength="50" x="706.5" y="483.0278">with the</text><text fill="#000000" font-family="sans-serif" font-size="13" lengthAdjust="spacing" text-decoration="underline" textLength="87" x="760.5" y="483.0278">TransactionID</text><text fill="#000000" font-family="sans-serif" font-size="13" lengthAdjust="spacing" textLength="116" x="851.5" y="483.0278">in an HTTP header</text><polygon fill="#181818" points="697.5,513.2266,687.5,517.2266,697.5,521.2266,693.5,517.2266" style="stroke:#181818;stroke-width:1.0;"/><line style="stroke:#181818;stroke-width:1.0;stroke-dasharray:2.0,2.0;" x1="691.5" x2="1024.5" y1="517.2266" y2="517.2266"/><text fill="#000000" font-family="sans-serif" font-size="13" font-weight="bold" lengthAdjust="spacing" textLength="18" x="703.5" y="512.1606">10</text><text fill="#000000" font-family="sans-serif" font-size="13" lengthAdjust="spacing" textLength="62" x="725.5" y="512.1606">Response</text><polygon fill="#181818" points="399.5,542.3594,389.5,546.3594,399.5,550.3594,395.5,546.3594" style="stroke:#181818;stroke-width:1.0;"/><line style="stroke:#181818;stroke-width:1.0;stroke-dasharray:2.0,2.0;" x1="393.5" x2="685.5" y1="546.3594" y2="546.3594"/><text fill="#000000" font-family="sans-serif" font-size="13" font-weight="bold" lengthAdjust="spacing" textLength="18" x="405.5" y="541.2935">11</text><text fill="#000000" font-family="sans-serif" font-size="13" lengthAdjust="spacing" textLength="62" x="427.5" y="541.2935">Response</text><polygon fill="#181818" points="92.5,586.625,82.5,590.625,92.5,594.625,88.5,590.625" style="stroke:#181818;stroke-width:1.0;"/><line style="stroke:#181818;stroke-width:1.0;stroke-dasharray:2.0,2.0;" x1="86.5" x2="387.5" y1="590.625" y2="590.625"/><text fill="#000000" font-family="sans-serif" font-size="13" font-weight="bold" lengthAdjust="spacing" textLength="18" x="98.5" y="577.9927">12</text><text fill="#000000" font-family="sans-serif" font-size="13" lengthAdjust="spacing" textLength="62" x="120.5" y="570.4263">Response</text><text fill="#000000" font-family="sans-serif" font-size="13" lengthAdjust="spacing" textLength="50" x="120.5" y="585.5591">with the</text><text fill="#000000" font-family="sans-serif" font-size="13" lengthAdjust="spacing" text-decoration="underline" textLength="87" x="174.5" y="585.5591">TransactionID</text><text fill="#000000" font-family="sans-serif" font-size="13" lengthAdjust="spacing" textLength="116" x="265.5" y="585.5591">in an HTTP header</text><text fill="#888888" font-family="sans-serif" font-size="10" lengthAdjust="spacing" textLength="38" x="1073.5" y="14.2822">Logging</text><!--SRC=[dLEnQiD03DtlAuGx1xfqoT0XARI5GaqQw58mYgt4H-Exz4vEqh-lVBPZEp65P9CjlQVt91sMR4rPhCWfrhobANmwpGHiWNE2fKFZCMLjpPlTg9mm8pS5YJVQR1HsQBMoHuZcrlYo81SfW1qwrgdUeM59R3KPZW0zf26KWWmPL-W9ec6RKCM3NotlEUrxoGVy3G0RGaKc0v7Iw8cTtUjiHC-hQN6wYgvJqxAUatwGs-kK0iBNSQUdjWsJnqRf51RqKv9dLN_tCyzaoA6i0I59Ud9UdvAaLpu-etQ5ZbBhiYzpq9o7PLvIZHF0P22oOgd8IEyfwtKFWpkv-A-Fb08QU5akOwXFI0LmZoL6vyUGQsSBQLuFwWGQNyVDnbk2OBmHT67yrBpPxAtE6tY_ruByJcPFRO_1-9jKEtV9rPVKvQuKeFotDdAtM8WLSM1IcjdZJCoIczkjTN0NnYCbrJljgkMCOymoUVZmSAzocHYihUNgkly0]--></g></svg>