<?xml version="1.0" encoding="us-ascii" standalone="no"?><svg xmlns="http://www.w3.org/2000/svg" xmlns:xlink="http://www.w3.org/1999/xlink" contentStyleType="text/css" height="668px" preserveAspectRatio="none" style="width:836px;height:668px;background:#FFFFFF;" version="1.1" viewBox="0 0 836 668" width="836px" zoomAndPan="magnify"><defs/><g><text fill="#000000" font-family="sans-serif" font-size="14" font-weight="bold" lengthAdjust="spacing" textLength="377" x="225.5" y="41.3125">Service Publication with External Contract Reference</text><rect fill="#ADD8E6" height="606.5215" style="stroke:none;stroke-width:0.5;" width="171" x="55" y="56.2656"/><text fill="#000000" font-family="sans-serif" font-size="13" font-weight="bold" lengthAdjust="spacing" textLength="165" x="58" y="68.834">API Provider (Delegatee)</text><rect fill="#90EE90" height="606.5215" style="stroke:none;stroke-width:0.5;" width="82" x="538" y="56.2656"/><text fill="#000000" font-family="sans-serif" font-size="13" font-weight="bold" lengthAdjust="spacing" textLength="62" x="548" y="68.834">Directory</text><rect fill="none" height="183.8184" style="stroke:#000000;stroke-width:1.5;" width="618.5" x="93.5" y="427.4805"/><line style="stroke:#181818;stroke-width:0.5;stroke-dasharray:5.0,5.0;" x1="140.5" x2="140.5" y1="107.0645" y2="628.2988"/><line style="stroke:#181818;stroke-width:0.5;stroke-dasharray:5.0,5.0;" x1="579" x2="579" y1="107.0645" y2="628.2988"/><rect fill="#E2E2F0" height="30.4883" rx="2.5" ry="2.5" style="stroke:#181818;stroke-width:0.5;" width="74" x="103.5" y="75.5762"/><text fill="#000000" font-family="sans-serif" font-size="14" lengthAdjust="spacing" textLength="60" x="110.5" y="96.1113">Manager</text><rect fill="#E2E2F0" height="30.4883" rx="2.5" ry="2.5" style="stroke:#181818;stroke-width:0.5;" width="74" x="103.5" y="627.2988"/><text fill="#000000" font-family="sans-serif" font-size="14" lengthAdjust="spacing" textLength="60" x="110.5" y="647.834">Manager</text><rect fill="#E2E2F0" height="30.4883" rx="2.5" ry="2.5" style="stroke:#181818;stroke-width:0.5;" width="74" x="542" y="75.5762"/><text fill="#000000" font-family="sans-serif" font-size="14" lengthAdjust="spacing" textLength="60" x="549" y="96.1113">Manager</text><rect fill="#E2E2F0" height="30.4883" rx="2.5" ry="2.5" style="stroke:#181818;stroke-width:0.5;" width="74" x="542" y="627.2988"/><text fill="#000000" font-family="sans-serif" font-size="14" lengthAdjust="spacing" textLength="60" x="549" y="647.834">Manager</text><path d="M5,122.0645 L5,162.0645 L276,162.0645 L276,132.0645 L266,122.0645 L5,122.0645 " fill="#FEFFDD" style="stroke:#181818;stroke-width:0.5;"/><path d="M266,122.0645 L266,132.0645 L276,132.0645 L266,122.0645 " fill="#FEFFDD" style="stroke:#181818;stroke-width:0.5;"/><text fill="#000000" font-family="sans-serif" font-size="13" lengthAdjust="spacing" textLength="168" x="11" y="139.6328">API Provider acts on behalf</text><text fill="#000000" font-family="sans-serif" font-size="13" lengthAdjust="spacing" textLength="250" x="11" y="154.9434">of Delegator based on external contract</text><line style="stroke:#181818;stroke-width:1.0;" x1="140.5" x2="182.5" y1="219.6172" y2="219.6172"/><line style="stroke:#181818;stroke-width:1.0;" x1="182.5" x2="182.5" y1="219.6172" y2="232.6172"/><line style="stroke:#181818;stroke-width:1.0;" x1="141.5" x2="182.5" y1="232.6172" y2="232.6172"/><polygon fill="#181818" points="151.5,228.6172,141.5,232.6172,151.5,236.6172,147.5,232.6172" style="stroke:#181818;stroke-width:1.0;"/><text fill="#000000" font-family="sans-serif" font-size="13" font-weight="bold" lengthAdjust="spacing" textLength="9" x="147.5" y="199.5645">1</text><text fill="#000000" font-family="sans-serif" font-size="13" lengthAdjust="spacing" textLength="281" x="160.5" y="184.2539">Create Contract with ServicePublicationGrant</text><text fill="#000000" font-family="sans-serif" font-size="13" lengthAdjust="spacing" textLength="367" x="160.5" y="199.5645">containing Properties with the External Contract Reference</text><text fill="#000000" font-family="sans-serif" font-size="13" lengthAdjust="spacing" textLength="260" x="160.5" y="214.875">(delegator_id, delegator_name, reference)</text><line style="stroke:#181818;stroke-width:1.0;" x1="140.5" x2="182.5" y1="261.9277" y2="261.9277"/><line style="stroke:#181818;stroke-width:1.0;" x1="182.5" x2="182.5" y1="261.9277" y2="274.9277"/><line style="stroke:#181818;stroke-width:1.0;" x1="141.5" x2="182.5" y1="274.9277" y2="274.9277"/><polygon fill="#181818" points="151.5,270.9277,141.5,274.9277,151.5,278.9277,147.5,274.9277" style="stroke:#181818;stroke-width:1.0;"/><text fill="#000000" font-family="sans-serif" font-size="13" font-weight="bold" lengthAdjust="spacing" textLength="9" x="147.5" y="257.1855">2</text><text fill="#000000" font-family="sans-serif" font-size="13" lengthAdjust="spacing" textLength="85" x="160.5" y="257.1855">Sign Contract</text><polygon fill="#181818" points="567,315.5488,577,319.5488,567,323.5488,571,319.5488" style="stroke:#181818;stroke-width:1.0;"/><line style="stroke:#181818;stroke-width:1.0;" x1="140.5" x2="573" y1="319.5488" y2="319.5488"/><text fill="#000000" font-family="sans-serif" font-size="13" font-weight="bold" lengthAdjust="spacing" textLength="9" x="147.5" y="307.1514">3</text><text fill="#000000" font-family="sans-serif" font-size="13" lengthAdjust="spacing" textLength="119" x="160.5" y="299.4961">Send Contract with</text><text fill="#000000" font-family="sans-serif" font-size="13" lengthAdjust="spacing" textLength="148" x="160.5" y="314.8066">ServicePublicationGrant</text><path d="M435,332.5488 L435,372.5488 L722,372.5488 L722,342.5488 L712,332.5488 L435,332.5488 " fill="#FEFFDD" style="stroke:#181818;stroke-width:0.5;"/><path d="M712,332.5488 L712,342.5488 L722,342.5488 L712,332.5488 " fill="#FEFFDD" style="stroke:#181818;stroke-width:0.5;"/><text fill="#000000" font-family="sans-serif" font-size="13" lengthAdjust="spacing" textLength="258" x="441" y="350.1172">Validation of External Contract Reference</text><text fill="#000000" font-family="sans-serif" font-size="13" lengthAdjust="spacing" textLength="266" x="441" y="365.4277">(manually or automatically outside of FSC)</text><line style="stroke:#181818;stroke-width:1.0;" x1="579" x2="621" y1="399.4805" y2="399.4805"/><line style="stroke:#181818;stroke-width:1.0;" x1="621" x2="621" y1="399.4805" y2="412.4805"/><line style="stroke:#181818;stroke-width:1.0;" x1="580" x2="621" y1="412.4805" y2="412.4805"/><polygon fill="#181818" points="590,408.4805,580,412.4805,590,416.4805,586,412.4805" style="stroke:#181818;stroke-width:1.0;"/><text fill="#000000" font-family="sans-serif" font-size="13" font-weight="bold" lengthAdjust="spacing" textLength="9" x="586" y="394.7383">4</text><text fill="#000000" font-family="sans-serif" font-size="13" lengthAdjust="spacing" textLength="223" x="599" y="394.7383">Validate external contract reference</text><path d="M93.5,427.4805 L155.5,427.4805 L155.5,434.791 L145.5,444.791 L93.5,444.791 L93.5,427.4805 " fill="#EEEEEE" style="stroke:#000000;stroke-width:1.5;"/><rect fill="none" height="183.8184" style="stroke:#000000;stroke-width:1.5;" width="618.5" x="93.5" y="427.4805"/><text fill="#000000" font-family="sans-serif" font-size="13" font-weight="bold" lengthAdjust="spacing" textLength="17" x="108.5" y="441.0488">alt</text><text fill="#000000" font-family="sans-serif" font-size="11" font-weight="bold" lengthAdjust="spacing" textLength="128" x="170.5" y="440.1152">[Validation successful]</text><line style="stroke:#181818;stroke-width:1.0;" x1="579" x2="621" y1="466.1016" y2="466.1016"/><line style="stroke:#181818;stroke-width:1.0;" x1="621" x2="621" y1="466.1016" y2="479.1016"/><line style="stroke:#181818;stroke-width:1.0;" x1="580" x2="621" y1="479.1016" y2="479.1016"/><polygon fill="#181818" points="590,475.1016,580,479.1016,590,483.1016,586,479.1016" style="stroke:#181818;stroke-width:1.0;"/><text fill="#000000" font-family="sans-serif" font-size="13" font-weight="bold" lengthAdjust="spacing" textLength="9" x="586" y="461.3594">5</text><text fill="#000000" font-family="sans-serif" font-size="13" lengthAdjust="spacing" textLength="101" x="599" y="461.3594">Accept Contract</text><polygon fill="#181818" points="151.5,504.4121,141.5,508.4121,151.5,512.4121,147.5,508.4121" style="stroke:#181818;stroke-width:1.0;"/><line style="stroke:#181818;stroke-width:1.0;" x1="145.5" x2="578" y1="508.4121" y2="508.4121"/><text fill="#000000" font-family="sans-serif" font-size="13" font-weight="bold" lengthAdjust="spacing" textLength="9" x="157.5" y="503.6699">6</text><text fill="#000000" font-family="sans-serif" font-size="13" lengthAdjust="spacing" textLength="240" x="170.5" y="503.6699">Return Contract with Accept Signature</text><path d="M106,521.4121 L106,561.4121 L613,561.4121 L613,531.4121 L603,521.4121 L106,521.4121 " fill="#FEFFDD" style="stroke:#181818;stroke-width:0.5;"/><path d="M603,521.4121 L603,531.4121 L613,531.4121 L603,521.4121 " fill="#FEFFDD" style="stroke:#181818;stroke-width:0.5;"/><text fill="#000000" font-family="sans-serif" font-size="13" lengthAdjust="spacing" textLength="233" x="238.75" y="538.9805">Service is now published in Directory</text><text fill="#000000" font-family="sans-serif" font-size="13" lengthAdjust="spacing" textLength="224" x="238.75" y="554.291">on behalf of Delegator organization</text><line style="stroke:#000000;stroke-width:1.0;stroke-dasharray:2.0,2.0;" x1="93.5" x2="712" y1="568.0332" y2="568.0332"/><text fill="#000000" font-family="sans-serif" font-size="11" font-weight="bold" lengthAdjust="spacing" textLength="101" x="98.5" y="578.668">[Validation failed]</text><polygon fill="#181818" points="151.5,599.2988,141.5,603.2988,151.5,607.2988,147.5,603.2988" style="stroke:#181818;stroke-width:1.0;"/><line style="stroke:#181818;stroke-width:1.0;" x1="145.5" x2="578" y1="603.2988" y2="603.2988"/><text fill="#000000" font-family="sans-serif" font-size="13" font-weight="bold" lengthAdjust="spacing" textLength="9" x="157.5" y="598.5566">7</text><text fill="#000000" font-family="sans-serif" font-size="13" lengthAdjust="spacing" textLength="96" x="170.5" y="598.5566">Reject Contract</text><text fill="#888888" font-family="sans-serif" font-size="10" lengthAdjust="spacing" textLength="217" x="611" y="14.668">Figure 1: Service Publication Delegation Flow</text><!--SRC=[bLHDRzim3BthLn3f9G5Ie3liqiE09bsA0HiGDC1E0GR6Pcnr2fL9SfBkruzo_1Nd0vrFjaI-Hxv7EkXW21RaTZeXc1ShenCCsZBiTSZXwo6GOpGmjHmS9W5UQKsEE26L4wRaOAQpmX5yUho8yao6ikFhpDYzKlwtvYqwt82dFqK4cjZ3n3g1cbfZ7Tm93ti98GwTw9Kzp35DDMVm-K5X4ImNcnKvfUG61a_pRp1tTgTZISEAbMWqWBllEil3n1IaG1v12phHM-G0Wn_8c94R0FeckpfJn6aahV2VjQCaMFTU0xuu8hwDsEISGR8D17OdfVPP8-19BwAv1r5lHJcQTNblrxMi8jSAFQKnW6ghaiggaYuoATLZWVilVU97c3eInLgZI_yhIpkEleWxOScH13L7EmHfIo81-MDEoEdMt2nvcDRL_zBf6DelnWsDmTMHeuyLlj0PDpmNK_f6n54LRKvQNVALNhjkdJaQxVY9HgV74HTdRcrCZ1vka0iqvXt4l3Z66qbDZWT5y59vH9ajfgEEVttUoqrLXT3vABIQWb9eGhTcNoG9URykJ5dVnwYU96SRMjMlPPwPzKgXSDoRiWej6eboBGr7lAjBChxiGtpgNv3sahw7RVJIvx8Wcjka9hfPgzELiYv3rdzBUShOnWWodhhQhL4RIl-d-pS9QcKJOFKF]--></g></svg>