<?xml version="1.0" encoding="us-ascii" standalone="no"?><svg xmlns="http://www.w3.org/2000/svg" xmlns:xlink="http://www.w3.org/1999/xlink" contentStyleType="text/css" height="684px" preserveAspectRatio="none" style="width:851px;height:684px;background:#FFFFFF;" version="1.1" viewBox="0 0 851 684" width="851px" zoomAndPan="magnify"><defs/><g><text fill="#000000" font-family="sans-serif" font-size="14" font-weight="bold" lengthAdjust="spacing" textLength="377" x="233" y="41.3125">Service Connection with External Contract Reference</text><rect fill="#ADD8E6" height="621.832" style="stroke:none;stroke-width:0.5;" width="183" x="51" y="56.2656"/><text fill="#000000" font-family="sans-serif" font-size="13" font-weight="bold" lengthAdjust="spacing" textLength="177" x="54" y="68.834">API Consumer (Delegatee)</text><rect fill="#90EE90" height="621.832" style="stroke:none;stroke-width:0.5;" width="89" x="546" y="56.2656"/><text fill="#000000" font-family="sans-serif" font-size="13" font-weight="bold" lengthAdjust="spacing" textLength="83" x="549" y="68.834">API Provider</text><rect fill="none" height="183.8184" style="stroke:#000000;stroke-width:1.5;" width="628" x="95.5" y="442.791"/><line style="stroke:#181818;stroke-width:0.5;stroke-dasharray:5.0,5.0;" x1="142.5" x2="142.5" y1="107.0645" y2="643.6094"/><line style="stroke:#181818;stroke-width:0.5;stroke-dasharray:5.0,5.0;" x1="590.5" x2="590.5" y1="107.0645" y2="643.6094"/><rect fill="#E2E2F0" height="30.4883" rx="2.5" ry="2.5" style="stroke:#181818;stroke-width:0.5;" width="74" x="105.5" y="75.5762"/><text fill="#000000" font-family="sans-serif" font-size="14" lengthAdjust="spacing" textLength="60" x="112.5" y="96.1113">Manager</text><rect fill="#E2E2F0" height="30.4883" rx="2.5" ry="2.5" style="stroke:#181818;stroke-width:0.5;" width="74" x="105.5" y="642.6094"/><text fill="#000000" font-family="sans-serif" font-size="14" lengthAdjust="spacing" textLength="60" x="112.5" y="663.1445">Manager</text><rect fill="#E2E2F0" height="30.4883" rx="2.5" ry="2.5" style="stroke:#181818;stroke-width:0.5;" width="74" x="553.5" y="75.5762"/><text fill="#000000" font-family="sans-serif" font-size="14" lengthAdjust="spacing" textLength="60" x="560.5" y="96.1113">Manager</text><rect fill="#E2E2F0" height="30.4883" rx="2.5" ry="2.5" style="stroke:#181818;stroke-width:0.5;" width="74" x="553.5" y="642.6094"/><text fill="#000000" font-family="sans-serif" font-size="14" lengthAdjust="spacing" textLength="60" x="560.5" y="663.1445">Manager</text><path d="M41,122.0645 L41,177.0645 L243,177.0645 L243,132.0645 L233,122.0645 L41,122.0645 " fill="#FEFFDD" style="stroke:#181818;stroke-width:0.5;"/><path d="M233,122.0645 L233,132.0645 L243,132.0645 L233,122.0645 " fill="#FEFFDD" style="stroke:#181818;stroke-width:0.5;"/><text fill="#000000" font-family="sans-serif" font-size="13" lengthAdjust="spacing" textLength="181" x="47" y="139.6328">API Consumer acts on behalf</text><text fill="#000000" font-family="sans-serif" font-size="13" lengthAdjust="spacing" textLength="161" x="47" y="154.9434">of Delegator organization</text><text fill="#000000" font-family="sans-serif" font-size="13" lengthAdjust="spacing" textLength="168" x="47" y="170.2539">based on external contract</text><line style="stroke:#181818;stroke-width:1.0;" x1="142.5" x2="184.5" y1="234.9277" y2="234.9277"/><line style="stroke:#181818;stroke-width:1.0;" x1="184.5" x2="184.5" y1="234.9277" y2="247.9277"/><line style="stroke:#181818;stroke-width:1.0;" x1="143.5" x2="184.5" y1="247.9277" y2="247.9277"/><polygon fill="#181818" points="153.5,243.9277,143.5,247.9277,153.5,251.9277,149.5,247.9277" style="stroke:#181818;stroke-width:1.0;"/><text fill="#000000" font-family="sans-serif" font-size="13" font-weight="bold" lengthAdjust="spacing" textLength="9" x="149.5" y="214.875">1</text><text fill="#000000" font-family="sans-serif" font-size="13" lengthAdjust="spacing" textLength="283" x="162.5" y="199.5645">Create Contract with ServiceConnectionGrant</text><text fill="#000000" font-family="sans-serif" font-size="13" lengthAdjust="spacing" textLength="367" x="162.5" y="214.875">containing Properties with the External Contract Reference</text><text fill="#000000" font-family="sans-serif" font-size="13" lengthAdjust="spacing" textLength="260" x="162.5" y="230.1855">(delegator_id, delegator_name, reference)</text><line style="stroke:#181818;stroke-width:1.0;" x1="142.5" x2="184.5" y1="277.2383" y2="277.2383"/><line style="stroke:#181818;stroke-width:1.0;" x1="184.5" x2="184.5" y1="277.2383" y2="290.2383"/><line style="stroke:#181818;stroke-width:1.0;" x1="143.5" x2="184.5" y1="290.2383" y2="290.2383"/><polygon fill="#181818" points="153.5,286.2383,143.5,290.2383,153.5,294.2383,149.5,290.2383" style="stroke:#181818;stroke-width:1.0;"/><text fill="#000000" font-family="sans-serif" font-size="13" font-weight="bold" lengthAdjust="spacing" textLength="9" x="149.5" y="272.4961">2</text><text fill="#000000" font-family="sans-serif" font-size="13" lengthAdjust="spacing" textLength="85" x="162.5" y="272.4961">Sign Contract</text><polygon fill="#181818" points="578.5,330.8594,588.5,334.8594,578.5,338.8594,582.5,334.8594" style="stroke:#181818;stroke-width:1.0;"/><line style="stroke:#181818;stroke-width:1.0;" x1="142.5" x2="584.5" y1="334.8594" y2="334.8594"/><text fill="#000000" font-family="sans-serif" font-size="13" font-weight="bold" lengthAdjust="spacing" textLength="9" x="149.5" y="322.4619">3</text><text fill="#000000" font-family="sans-serif" font-size="13" lengthAdjust="spacing" textLength="119" x="162.5" y="314.8066">Send Contract with</text><text fill="#000000" font-family="sans-serif" font-size="13" lengthAdjust="spacing" textLength="150" x="162.5" y="330.1172">ServiceConnectionGrant</text><path d="M447,347.8594 L447,387.8594 L734,387.8594 L734,357.8594 L724,347.8594 L447,347.8594 " fill="#FEFFDD" style="stroke:#181818;stroke-width:0.5;"/><path d="M724,347.8594 L724,357.8594 L734,357.8594 L724,347.8594 " fill="#FEFFDD" style="stroke:#181818;stroke-width:0.5;"/><text fill="#000000" font-family="sans-serif" font-size="13" lengthAdjust="spacing" textLength="253" x="453" y="365.4277">Validation of external contract reference</text><text fill="#000000" font-family="sans-serif" font-size="13" lengthAdjust="spacing" textLength="266" x="453" y="380.7383">(manually or automatically outside of FSC)</text><line style="stroke:#181818;stroke-width:1.0;" x1="590.5" x2="632.5" y1="414.791" y2="414.791"/><line style="stroke:#181818;stroke-width:1.0;" x1="632.5" x2="632.5" y1="414.791" y2="427.791"/><line style="stroke:#181818;stroke-width:1.0;" x1="591.5" x2="632.5" y1="427.791" y2="427.791"/><polygon fill="#181818" points="601.5,423.791,591.5,427.791,601.5,431.791,597.5,427.791" style="stroke:#181818;stroke-width:1.0;"/><text fill="#000000" font-family="sans-serif" font-size="13" font-weight="bold" lengthAdjust="spacing" textLength="9" x="597.5" y="410.0488">4</text><text fill="#000000" font-family="sans-serif" font-size="13" lengthAdjust="spacing" textLength="223" x="610.5" y="410.0488">Validate external contract reference</text><path d="M95.5,442.791 L157.5,442.791 L157.5,450.1016 L147.5,460.1016 L95.5,460.1016 L95.5,442.791 " fill="#EEEEEE" style="stroke:#000000;stroke-width:1.5;"/><rect fill="none" height="183.8184" style="stroke:#000000;stroke-width:1.5;" width="628" x="95.5" y="442.791"/><text fill="#000000" font-family="sans-serif" font-size="13" font-weight="bold" lengthAdjust="spacing" textLength="17" x="110.5" y="456.3594">alt</text><text fill="#000000" font-family="sans-serif" font-size="11" font-weight="bold" lengthAdjust="spacing" textLength="128" x="172.5" y="455.4258">[Validation successful]</text><line style="stroke:#181818;stroke-width:1.0;" x1="590.5" x2="632.5" y1="481.4121" y2="481.4121"/><line style="stroke:#181818;stroke-width:1.0;" x1="632.5" x2="632.5" y1="481.4121" y2="494.4121"/><line style="stroke:#181818;stroke-width:1.0;" x1="591.5" x2="632.5" y1="494.4121" y2="494.4121"/><polygon fill="#181818" points="601.5,490.4121,591.5,494.4121,601.5,498.4121,597.5,494.4121" style="stroke:#181818;stroke-width:1.0;"/><text fill="#000000" font-family="sans-serif" font-size="13" font-weight="bold" lengthAdjust="spacing" textLength="9" x="597.5" y="476.6699">5</text><text fill="#000000" font-family="sans-serif" font-size="13" lengthAdjust="spacing" textLength="101" x="610.5" y="476.6699">Accept Contract</text><polygon fill="#181818" points="153.5,519.7227,143.5,523.7227,153.5,527.7227,149.5,523.7227" style="stroke:#181818;stroke-width:1.0;"/><line style="stroke:#181818;stroke-width:1.0;" x1="147.5" x2="589.5" y1="523.7227" y2="523.7227"/><text fill="#000000" font-family="sans-serif" font-size="13" font-weight="bold" lengthAdjust="spacing" textLength="9" x="159.5" y="518.9805">6</text><text fill="#000000" font-family="sans-serif" font-size="13" lengthAdjust="spacing" textLength="240" x="172.5" y="518.9805">Return Contract with Accept Signature</text><path d="M108,536.7227 L108,576.7227 L625,576.7227 L625,546.7227 L615,536.7227 L108,536.7227 " fill="#FEFFDD" style="stroke:#181818;stroke-width:0.5;"/><path d="M615,536.7227 L615,546.7227 L625,546.7227 L615,536.7227 " fill="#FEFFDD" style="stroke:#181818;stroke-width:0.5;"/><text fill="#000000" font-family="sans-serif" font-size="13" lengthAdjust="spacing" textLength="214" x="250" y="554.291">Consumer can now access service</text><text fill="#000000" font-family="sans-serif" font-size="13" lengthAdjust="spacing" textLength="224" x="250" y="569.6016">on behalf of Delegator organization</text><line style="stroke:#000000;stroke-width:1.0;stroke-dasharray:2.0,2.0;" x1="95.5" x2="723.5" y1="583.3438" y2="583.3438"/><text fill="#000000" font-family="sans-serif" font-size="11" font-weight="bold" lengthAdjust="spacing" textLength="101" x="100.5" y="593.9785">[Validation failed]</text><polygon fill="#181818" points="153.5,614.6094,143.5,618.6094,153.5,622.6094,149.5,618.6094" style="stroke:#181818;stroke-width:1.0;"/><line style="stroke:#181818;stroke-width:1.0;" x1="147.5" x2="589.5" y1="618.6094" y2="618.6094"/><text fill="#000000" font-family="sans-serif" font-size="13" font-weight="bold" lengthAdjust="spacing" textLength="9" x="159.5" y="613.8672">7</text><text fill="#000000" font-family="sans-serif" font-size="13" lengthAdjust="spacing" textLength="96" x="172.5" y="613.8672">Reject Contract</text><text fill="#888888" font-family="sans-serif" font-size="10" lengthAdjust="spacing" textLength="218" x="625" y="14.668">Figure 2: Service Connection Delegation Flow</text><!--SRC=[bLHDZzf03BtFhx3O2qXKgYhrieTA2oshIgs45gadfCeaJfXsug7p0RI_lfuGacnWwJOdYEttxFVi11qCmOhSNcS4SyjCMT2MuQ335ZuT0pb6amB1OHRWYGfon1cfBM5E3XQwZ8xWtVqra8zagCJwvyBOWrB-f-OTEgp0qw-OS6RsEBDEaERMM0TtGiDUKeX3BtjZZqlCSyqbl7-hC0RBiTgGKqeYC7fOVawqFbRIqRXX9PgCuEwBBhTXPY8fa4VGWixq3Zd0w2iobkH6WBwjRjufuZoHzl2Npkvrdj9Fc8-EY6-3daikGDa60hkNPeUy2U_PD2Aw1z5lGriqHHstnLbO4Sow4bd_gKMkenlqbASAEfkNDURL_8bQgG4jlFamxEGUvev4nCxwUYCQapkF7yMliER4WPgJGJBrZaGHygUIiALRYxJcSNwUvhlEfz3zOwne2kwSENbTtojTSijpjMJWIrfTKURPe6k-FcdVkw6zIVrlQ7H-sdYnwSA2RfWwUrmXHpJcjzW8QQihASrEBsBm0fvG5glvfEVTWFRgG4qRTAi3K0fDw7ViOvQHzqKqTNUl8NgGYbtev7wXxiAa9mhHyM2v6h1a84fOParmBnxBzAe3wMcl9qEM-eDSKHfCFZgrfsrUUrV_kAbMV3AU-eeLg0tb_p7r3zcbJYt1LNy1]--></g></svg>