<?xml version="1.0" encoding="us-ascii" standalone="no"?><svg xmlns="http://www.w3.org/2000/svg" xmlns:xlink="http://www.w3.org/1999/xlink" contentStyleType="text/css" height="228px" preserveAspectRatio="none" style="width:567px;height:228px;background:#FFFFFF;" version="1.1" viewBox="0 0 567 228" width="567px" zoomAndPan="magnify"><defs/><g><text fill="#888888" font-family="sans-serif" font-size="10" lengthAdjust="spacing" textLength="129" x="424" y="9.2822">UML Component Diagram</text><!--cluster Verantwoordelijke A--><g id="cluster_Verantwoordelijke A"><rect fill="none" height="203" rx="2.5" ry="2.5" style="stroke:#181818;stroke-width:1.0;" width="265" x="7" y="19.6406"/><path d="M178,19.6406 L178,28.9375 L168,38.9375 L7,38.9375 " fill="none" style="stroke:#181818;stroke-width:1.0;"/><text fill="#000000" font-family="sans-serif" font-size="14" font-weight="bold" lengthAdjust="spacing" textLength="161" x="10" y="33.6357">Verantwoordelijke A</text></g><!--cluster Verantwoordelijke B--><g id="cluster_Verantwoordelijke B"><rect fill="none" height="203" rx="2.5" ry="2.5" style="stroke:#181818;stroke-width:1.0;" width="265" x="296" y="19.6406"/><path d="M466,19.6406 L466,28.9375 L456,38.9375 L296,38.9375 " fill="none" style="stroke:#181818;stroke-width:1.0;"/><text fill="#000000" font-family="sans-serif" font-size="14" font-weight="bold" lengthAdjust="spacing" textLength="160" x="299" y="33.6357">Verantwoordelijke B</text></g><!--entity loggerA--><g id="elem_loggerA"><rect fill="#F1F1F1" height="46.2969" rx="2.5" ry="2.5" style="stroke:#181818;stroke-width:0.5;" width="100" x="156" y="160.6406"/><rect fill="#F1F1F1" height="10" style="stroke:#181818;stroke-width:0.5;" width="15" x="236" y="165.6406"/><rect fill="#F1F1F1" height="2" style="stroke:#181818;stroke-width:0.5;" width="4" x="234" y="167.6406"/><rect fill="#F1F1F1" height="2" style="stroke:#181818;stroke-width:0.5;" width="4" x="234" y="171.6406"/><text fill="#000000" font-family="sans-serif" font-size="14" lengthAdjust="spacing" textLength="60" x="171" y="193.6357">Logboek</text></g><!--entity softwareA--><g id="elem_softwareA"><rect fill="#F1F1F1" height="46.2969" rx="2.5" ry="2.5" style="stroke:#181818;stroke-width:0.5;" width="106" x="150" y="54.6406"/><rect fill="#F1F1F1" height="10" style="stroke:#181818;stroke-width:0.5;" width="15" x="236" y="59.6406"/><rect fill="#F1F1F1" height="2" style="stroke:#181818;stroke-width:0.5;" width="4" x="234" y="61.6406"/><rect fill="#F1F1F1" height="2" style="stroke:#181818;stroke-width:0.5;" width="4" x="234" y="65.6406"/><text fill="#000000" font-family="sans-serif" font-size="14" lengthAdjust="spacing" textLength="66" x="165" y="87.6357">Applicatie</text></g><!--entity registerA--><g id="elem_registerA"><rect fill="#F1F1F1" height="46.2969" rx="2.5" ry="2.5" style="stroke:#181818;stroke-width:0.5;" width="98" x="23" y="160.6406"/><rect fill="#F1F1F1" height="10" style="stroke:#181818;stroke-width:0.5;" width="15" x="101" y="165.6406"/><rect fill="#F1F1F1" height="2" style="stroke:#181818;stroke-width:0.5;" width="4" x="99" y="167.6406"/><rect fill="#F1F1F1" height="2" style="stroke:#181818;stroke-width:0.5;" width="4" x="99" y="171.6406"/><text fill="#000000" font-family="sans-serif" font-size="14" lengthAdjust="spacing" textLength="58" x="38" y="193.6357">Register</text></g><!--entity loggerB--><g id="elem_loggerB"><rect fill="#F1F1F1" height="46.2969" rx="2.5" ry="2.5" style="stroke:#181818;stroke-width:0.5;" width="100" x="312" y="160.6406"/><rect fill="#F1F1F1" height="10" style="stroke:#181818;stroke-width:0.5;" width="15" x="392" y="165.6406"/><rect fill="#F1F1F1" height="2" style="stroke:#181818;stroke-width:0.5;" width="4" x="390" y="167.6406"/><rect fill="#F1F1F1" height="2" style="stroke:#181818;stroke-width:0.5;" width="4" x="390" y="171.6406"/><text fill="#000000" font-family="sans-serif" font-size="14" lengthAdjust="spacing" textLength="60" x="327" y="193.6357">Logboek</text></g><!--entity softwareB--><g id="elem_softwareB"><rect fill="#F1F1F1" height="46.2969" rx="2.5" ry="2.5" style="stroke:#181818;stroke-width:0.5;" width="106" x="312" y="54.6406"/><rect fill="#F1F1F1" height="10" style="stroke:#181818;stroke-width:0.5;" width="15" x="398" y="59.6406"/><rect fill="#F1F1F1" height="2" style="stroke:#181818;stroke-width:0.5;" width="4" x="396" y="61.6406"/><rect fill="#F1F1F1" height="2" style="stroke:#181818;stroke-width:0.5;" width="4" x="396" y="65.6406"/><text fill="#000000" font-family="sans-serif" font-size="14" lengthAdjust="spacing" textLength="66" x="327" y="87.6357">Applicatie</text></g><!--entity registerB--><g id="elem_registerB"><rect fill="#F1F1F1" height="46.2969" rx="2.5" ry="2.5" style="stroke:#181818;stroke-width:0.5;" width="98" x="447" y="160.6406"/><rect fill="#F1F1F1" height="10" style="stroke:#181818;stroke-width:0.5;" width="15" x="525" y="165.6406"/><rect fill="#F1F1F1" height="2" style="stroke:#181818;stroke-width:0.5;" width="4" x="523" y="167.6406"/><rect fill="#F1F1F1" height="2" style="stroke:#181818;stroke-width:0.5;" width="4" x="523" y="171.6406"/><text fill="#000000" font-family="sans-serif" font-size="14" lengthAdjust="spacing" textLength="58" x="462" y="193.6357">Register</text></g><!--link softwareA to loggerA--><g id="link_softwareA_loggerA"><path d="M206,100.6406 C206,100.6406 206,155.3206 206,155.3206 " fill="none" id="softwareA-to-loggerA" style="stroke:#008000;stroke-width:2.0;"/><polygon fill="#008000" points="206,160.3206,210,151.3206,206,155.3206,202,151.3206,206,160.3206" style="stroke:#008000;stroke-width:2.0;"/></g><!--link softwareA to registerA--><!--link registerA to loggerA--><g id="link_registerA_loggerA"><path d="M121.14,183.6406 C132.49,183.6406 144.58,183.6406 155.97,183.6406 " fill="none" id="registerA-loggerA" style="stroke:#008000;stroke-width:1.0;stroke-dasharray:7.0,7.0;"/></g><!--link softwareB to loggerB--><g id="link_softwareB_loggerB"><path d="M362,100.6406 C362,100.6406 362,155.3206 362,155.3206 " fill="none" id="softwareB-to-loggerB" style="stroke:#008000;stroke-width:2.0;"/><polygon fill="#008000" points="362,160.3206,366,151.3206,362,155.3206,358,151.3206,362,160.3206" style="stroke:#008000;stroke-width:2.0;"/></g><!--link softwareB to registerB--><!--link loggerB to registerB--><g id="link_loggerB_registerB"><path d="M412.28,183.6406 C423.57,183.6406 435.53,183.6406 446.78,183.6406 " fill="none" id="loggerB-registerB" style="stroke:#008000;stroke-width:1.0;stroke-dasharray:7.0,7.0;"/></g><!--reverse link softwareB to softwareA--><g id="link_softwareB_softwareA"><path d="M306.96,77.6406 C306.96,77.6406 256.16,77.6406 256.16,77.6406 " fill="none" id="softwareB-backto-softwareA" style="stroke:#008000;stroke-width:2.0;"/><polygon fill="#008000" points="311.96,77.6406,302.96,73.6406,306.96,77.6406,302.96,81.6406,311.96,77.6406" style="stroke:#008000;stroke-width:2.0;"/></g><!--SRC=[ZL5DImCn4BtdLmphrO0NBoB2HeyLIa4lnKEscMRJJJDX4gb5_E-kPOchhcLp24pcvNtCjAWDyWqyFIxWdlQH0eOC3qvRrdiXjlsDK3qZwv0FH6pGkrs7K5VmBWJqPrD-LGko3M5NWKxWoLha-ZUaZj6xZSuEJwX4stpGZ7zmAxGkPUGJYeUY5X__ErBp7AcPZjGiHwft98QeS2lN3NbpUM4PCRoyob6y4W7akdN6dEiRdLeiD2pBB0SbTKP95IOrgQGAnuJETofHdC5FAI_lHbmYTIv4tQy46dfRQcDSi71zDNhtBc0-HeH8_lXLJFM8SqkV]--></g></svg>